<svg xmlns="http://www.w3.org/2000/svg" viewBox="0 0 100 100"><path d="M49.076 22.58v18.14c.122-.064.241-.132.365-.189.102-.046.111-.035.059-.055.22-.262.43-.556.701-.77.11-.085.229-.158.344-.237.219-.166.48-.263.695-.434.099-.078.18-.206.258-.303.135-.197.34-.332.49-.513.028-.034.041-.079.065-.116.135-.21.176-.252.336-.453.306-.311.636-.596.941-.91.05-.051.106-.098.15-.154.015-.019-.064.062-.06.039.013-.089.255-.41.262-.418.207-.254.29-.146.207-.244.108-.231.309-.392.468-.582.006-.007-.026.003-.023-.004a.813.813 0 0 1 .088-.149c.056-.08.118-.156.178-.234-.017.002-.053.02-.05.004.112-.523.561-.861.952-1.172l.06-.057c-.013.01-.029.03-.039.024-.035-.022.015-.08.028-.12.1-.312.253-.58.398-.872.17-.287.427-.488.604-.77.01-.015.001-.036.006-.053.015-.056.036-.112.054-.168.177-.22.16-.477.291-.716.097-.176.272-.414.399-.586.145-.21.374-.344.539-.534.013-.014-.055.043-.053.024.009-.067.236-.373.238-.377-.008-.134.392-.622.409-.639.072-.071.174-.105.257-.164.04-.028-.083.047-.125.07.24-.401.6-.705.938-1.021.046-.045.097-.083.137-.133.02-.026-.077.097-.08.063-.02-.175.544-.716.68-.838.03-.027.28-.244.314-.285.022-.027-.074.095-.084.062-.014-.046.037-.091.062-.133.055-.092.1-.192.178-.267.124-.12.277-.205.416-.307l.25-.04.006-.007.037-.023a.826.826 0 0 1 .162-.219c0-.562.464-.249.682-.396.012-.008.013-.025.02-.038l.236-.127c.12-.033.236-.085.359-.101.081-.01.162-.003.244.002.03-.02.045-.026.172-.127.18-.077.359-.176.553-.201.088-.057.18-.111.27-.166.19.022.431-.149.62-.192.094-.02.19-.024.284-.047.027-.006-.106.016-.084-.002.05-.04.121-.049.181-.074.959-.195-.237.037.463-.16.101-.028.206-.034.307-.062.016-.005-.063-.002-.05-.01.06-.035.13-.051.194-.076.32-.067.275-.079.596-.067.01-.017.073-.031.105-.043.091-.032.186-.056.278-.084.105-.009.212-.012.316-.029.035-.006-.129.022-.107-.006.085-.111.61-.123.732-.137.045-.005-.088-.005-.133-.007.252-.125.52-.14.791-.127.352-.222.787-.151 1.192-.127a26.434 26.434 0 0 1 1.217-.01c.014 0 .024.006.039.006a1.333 1.333 0 0 1 .078-.492c.064-.178.087-.208.148-.26h-22.21zm26.02 5.293c-.016-.003-.056-.015-.04-.006.052.027.102.055.155.078l-.115-.072z" fill="#00f" fill-rule="evenodd"/><path d="M69.387 24.728c-.204.082-.403.18-.614.243-.191.057-.22-.14-.394.01-.145.037-.288.082-.434.115-.01.002-.004-.039-.025-.024-.049.014-.096.035-.143.053l-.404.113c-.008.002.01-.013.016-.02-.042-.01-.837.326-.819.145-.325.12-.56.203-.894.315-.007.002.007-.013.01-.02-.17.068-.284.114-.485.178-.043.013-.052-.316-.133.025-.103.033-.205.08-.312.102-.024.005.04-.033.059-.05.024-.126.008-.013-.217.155-.154.115-.32.138-.51.174-.12.102-.235.21-.379.268-.173.07-.369.06-.555.08-.02.002-.058 0-.058-.018-.113.064-.224.134-.342.19a2.07 2.07 0 0 0-.07.035c-.011.047-.014.046-.026.1-.095.064-.182.15-.285.197-.164.142-.354.3-.578.338a2.117 2.117 0 0 1-.559.648c-.046.04-.212.152-.252.217-.14.229-.223.504-.455.666-.285.267-.593.515-.79.86-.085.081-.169.164-.255.245-.084.16-.224.35-.25.442-.12.128.026-.039-.144.23a2.76 2.76 0 0 1-.588.668c-.068.086-.118.185-.187.27-.007.007-.024-.01-.03-.002-.106.15-.122.346-.19.517-.015.04-.045.075-.068.112-.167.462-.36.78-.687 1.146-.013.014-.057-.04-.053.021-.063.126-.146.24-.205.368-.192.418-.215.874-.646 1.158-.013.01-.375.264-.391.293-.112.202-.11.458-.273.637-.14.149-.229.35-.354.511-.175.227-.028-.024-.166.168-.035.048-.062.1-.094.15-.067.095-.129.194-.2.284-.033.04-.092.055-.12.1-.297.467.357-.396-.283.49-.042.058-.1.102-.15.154-.273.28-.557.547-.85.805-.3.363-.542.77-.895 1.088-.397.487-.762.752-1.308 1.054-.373.177-.57.608-.87.875-.095.073-.185.154-.287.219-.067.043-.144.069-.216.103-.018.002-.036-.004-.051.004a1.745 1.745 0 0 0-.455.317c-.133.143-.264.294-.397.44v32.77c.25.001.502 0 .752-.003.252.002.506.029.756.008.614-.111.889-.017 1.385.304.024.001.031.003.047.002.18-.003.36-.04.54-.049.13.013.266 0 .39.04.056.018.153.089.25.148.022 0 .083.01.064 0 .31-.004.621-.014.931.014.177.013.3-.051.479-.067.488-.042.402-.015.855.17.14.115.219.167.221.19.126-.003.235-.01.16-.036.299-.008.33-.03.633.057.082.024.158.066.236.1.004.008.006.02.014.023.385.165.238.088.3.123.049-.013.096-.028.145-.031.393-.025.72.062 1.002.326.41-.065.643-.016 1.002.3.028-.002.016-.016.274-.032.142.035.29.052.426.107.218.09.362.243.533.389.045.038.166.087.158.119.212.086.425.18.592.322.06.052.195.09.193.156.196.105.388.215.592.295.13.044.266.073.389.133.213.104.338.27.466.463.01.014-.054-.037-.045-.023.076.106.182.19.26.295.112.124.155.123.309.222.233.152.409.295.572.514.113.132.2.132.358.238.01.007-.04.012-.03.018.228.137.698-.267.7.383.027.048.053.097.083.144.08.005.162.012.211.016.1.03.203.054.301.09.137.05.173.07.154.076h1.323c.316 0 .633 0 .949.002.404 0 .808-.021 1.21 0 .079.007.16.007.235.025.022.005.005.029.037.02.05-.014.098-.037.147-.055l.404-.104c-.017.011-.06.051-.04.043.356-.147.627-.3 1.025-.214.027.003.056.004.083.011.006.002.008.028.018.026.08-.022.573-.27.524-.168-.015-.01-.026-.022.255-.082.184-.04.373-.057.56-.07.014-.002.022.008.038.01.032-.033.025-.043.168-.138.088-.058.495-.24.627-.265.034-.006-.054.044-.08.066.453-.293.427-.332.916-.398.211-.14.35-.253.613-.29l.002-.001h.002c.006-.021-.155.091.252-.203.195-.045.388-.102.586-.135l.025-.002c.075-.068.072-.052.192-.172.092-.025.183-.063.277-.076.126-.108.25-.223.41-.278.053-.035.413-.307.534-.31.049-.001-.075.065-.108.101-.006.007.028-.005.03 0l.367-.431c.034-.017.541-.26.609-.272.039-.007-.061.051-.086.082-.006.008.082-.062.027.01.117-.133.218-.28.348-.398.062-.057.147-.08.22-.121.004.005.007.016.012.013.246-.15.439-.33.723-.43.066-.012.147-.067.211-.072.179-.194.351-.392.61-.498.048-.017.121-.068.177-.097.083-.061.116-.09.262-.192.058-.04.134-.094.2-.084a.859.859 0 0 1 .27-.244c.121-.065.263-.067.403-.076a1.5 1.5 0 0 1 .45-.348c.706-.38.175-.038.17-.029-.019.027.055-.033.083-.049l.363-.242c.112-.035.219-.079.332-.105.027-.007-.072.08-.048.066.66-.416-.492.221.587-.344-.031.022-.067.037-.093.065-.015.015.039-.014.056-.026.112-.075.212-.167.33-.232a1.17 1.17 0 0 1 .28-.106c.026-.006-.09.055-.063.051.04-.006.07-.038.104-.057.02-.01.338-.22.537-.283.041-.044.104-.086.316-.267.124.014.005.005.262-.162.042-.028.081-.067.13-.073.022-.002-.036.075-.02.06.124-.114.175-.297.324-.392.094-.057.182-.132.28-.177.134-.128.337-.307.536-.344.017-.018.03-.035.047-.051.05-.167.041-.173.347-.512.003.018-.015.051-.021.076.027-.068.049-.139.082-.205a.648.648 0 0 1 .074-.109c.01-.028-.004.008.008-.027.094-.183.266-.52.31-.582.02-.027.056-.069.09-.104.03-.052.032-.065.08-.146.12-.198.233-.394.393-.56.052-.055.114-.222.143-.237.042-.134.099-.264.195-.332.044-.032-.092.196-.066.148.124-.229.205-.402.375-.576.094-.206.3-.529.33-.662.105-.073.005.006.119-.277.122-.306.253-.548.472-.739.014-.105.03-.212.065-.312.038-.11.108-.207.162-.31.055-.066.125-.252.162-.26.017-.041.014-.042.035-.092.026-.062.087-.222.112-.178.015-.048.023-.099.045-.145.036-.078.107-.27.152-.222.017-.038.03-.078.049-.115.007-.016.018-.02.033-.041.058-.261.137-.5.29-.762.034-.056.09-.174.14-.133.112-.252.23-.452.478-.611.136-.4.335-.52.496-.74.052-.101.154-.244.416-.493.008-.007.027-.015.037-.023a.704.704 0 0 1 .268-.307c.036-.024-.094.147-.067.113.326-.399-.068-.01.336-.394.063-.079.121-.193.188-.207.05-.147.078-.206.307-.404.165-.246.174-.267.453-.543.04-.041.096-.064.144-.096-.294.361-.07.08.147-.14a3.44 3.44 0 0 1-.149.171c.779-.912-.341.422.428-.476-.043.094-.134.393-.094.296.136-.327.118-.494.346-.675.033-.037.072-.075.1-.114-.04.08-.009.02-.026.055l.014-.012.055-.1c-.002-.01.007-.063 0-.048v-1.797c-.001-.3-.001-.599.003-.898-.001-.34-.04-.68.016-1.016l-.008-.006c-.306-.623-.352-.44-.312-.87.008-.092.004-.193.045-.276.017-.035.11.256.072.09.12-.007.014.005-.156-.221-.136-.181-.155-.337-.201-.565-.044-.049-.068-.068-.118-.133-.014-.018-.01-.045-.021-.066-.049-.097-.104-.19-.156-.285-.01-.028-.014-.059-.026-.086-.043-.103-.091-.204-.136-.307.019.03.072.118.058.086-.017-.04-.045-.074-.068-.111l-.145-.473c-.055-.083-.113-.165-.162-.252-.015-.026-.006-.059-.014-.088-.066-.259-.079-.295-.091-.433-.048-.037-.094-.069-.145-.121-.041-.043-.416-.745-.328-.76-.067-.199-.121-.416-.156-.492-.05-.109-.11-.214-.157-.324-.012-.03-.014-.061-.021-.092-.029-.078-.145-.225-.111-.252-.178-.202-.244-.32-.317-.805.058.008.052.093.117.096-.255-.339-.32-.266-.423-.834.02.013.044.076.048.053.02-.099-.285-.536-.294-.702.022.027.055.113.066.08.011-.035-.04-.062-.06-.093-.09-.14-.21-.266-.272-.42-.05-.123-.05-.259-.065-.39-.074-.105-.154-.206-.209-.321-.491-1.043.29.256-.171-.473-.068-.135-.388-.546-.35-.699.016-.064.07.113.117.16.084.086.74.198-.256-.252-.05-.124-.104-.247-.15-.373-.106-.126-.07-.044-.246-.322-.012-.018-.017-.04-.026-.059-.195-.275-.262-.307-.341-.615-.007-.026.052.089.048.063-.005-.039-.033-.068-.052-.102-.07-.124-.155-.24-.213-.37-.019-.04-.026-.086-.037-.13-.008-.006-.018-.009-.026-.016-.297-.284-.301-.388-.457-.703.052-.143-.348-.464-.373-.597-.007-.037.055.05.082.076l-.246-.272c.003-.008.013-.016.008-.023-.058-.074-.13-.136-.19-.21-.146-.177-.213-.322-.314-.519-.058-.03-.118-.06-.172-.097-.109-.076-.332-.33-.414-.42-.059-.082-.12-.16-.176-.244-.03-.046-.108-.095-.082-.143.002-.003.01.007.012.006-.095-.066-.188-.127-.264-.236-.032-.02-.068-.034-.095-.059-.193-.173-.333-.405-.471-.621-.03-.048-.087-.094-.08-.15.004-.036.061.039.092.058-.094-.076-.198-.14-.287-.22-.073-.066-.134-.144-.202-.215.019.006.07.035.055.021-.148-.143-.342-.236-.465-.408-.08-.125-.177-.241-.242-.375-.046-.097-.059-.206-.088-.309.018.027.029.06.053.08.008.007.01-.022.004-.03-.049-.074-.108-.139-.162-.208l-.06-.094c.038.026.15.109.114.078-.096-.083-.202-.153-.298-.236-.02-.017.14.065.091.031-.551-.38-.283-.1-.617-.52-.16-.275-.105-.203-.299-.487-.029-.043-.107-.093-.078-.135.002-.003.01.006.014.006l-.076-.055c-.08-.081-.169-.155-.239-.244-.024-.032.132.095.102.068-.196-.174-.26-.155-.418-.406l-.01-.008c-.07-.061-.162-.103-.209-.183-.028-.049.198.107.149.08-.332-.181-.286-.125-.59-.49a.25.25 0 0 1-.067-.14c0-.022.04.02.061.03-.193-.181-.563-.408-.682-.63-.106-.094-.424-.364-.422-.39.002-.017.047.006.051-.011.004-.016-.028-.016-.043-.024-.176-.058-.368-.082-.529-.175-.121-.07-.2-.196-.293-.301-.01-.011-.026-.045-.012-.041.054.014.2.102.149.078-.328-.155-.24-.127-.604-.422-.055-.084-.112-.166-.164-.252-.008-.013-.01-.024-.021-.043a3.5 3.5 0 0 1-.295-.213c-.045-.037-.077-.086-.115-.129-.243-.246-.81-.476-.875-.789-.01-.046.064.072.095.108l-.195-.23c.027.014.099.069.08.044-.08-.105-.216-.152-.313-.242a1.846 1.846 0 0 1-.232-.25c-.023-.032.065.046.098.068-.076-.06-.316-.248-.36-.336-.363-.264-.456-.298-.3-.252-.135-.164-.197-.233-.22-.273-.264-.067-.268-.06-.64-.42a.515.515 0 0 1-.072-.156c-.018-.015-.012-.006-.041-.031-.05-.045-.172-.097-.19-.141l-.003-.002c-.095-.102.007-.001-.278-.129-.167-.075-.356-.134-.506-.248-.099-.075-.192-.158-.289-.236.157.082.029.005-.172-.184a1.543 1.543 0 0 1-.296-.176c.483.19-.165-.066-.17-.068-.039-.019-.689-.52-.479-.422.05.023.098.052.147.078a3.604 3.604 0 0 1-.618-.389c-.1-.084-.392-.327-.27-.283.06.022.116.053.175.078-.292-.125-.428-.193-.678-.396-.03-.024.129.082.1.057-.422-.362-.247-.132-.393-.336.184.09-.025-.008-.281-.276-.036-.037-.082-.079-.084-.13-.001-.031.102.063.08.042-.07-.063-.162-.103-.225-.173-.066-.075-.116-.16-.17-.245-.008-.01-.013-.01-.017-.017l-.012-.026c-.018-.027-.038-.053-.057-.08l.043.055c-.275-.505-.28-.511-.27-1.004a63.87 63.87 0 0 0-.001-.758c-.027.001-.045.01-.072.01-.127 0-.254 0-.381-.002-.311-.002-.621.01-.932.008-.035-.003-.434-.027-.43-.043.008-.032.063-.024.09-.043l.018-.016z" fill="#fff" fill-rule="evenodd"/><path d="M74.746 79.424c.027-.002-.065.037-.092.062-.012.012-.035.058-.021.047.177-.146.108-.099.113-.11zM61.83 25.709c.06-.043-.132.062-.197.094-.006.008-.01.026-.016.037.073-.042.146-.082.213-.131zm-.185.219a.823.823 0 0 0-.059.027l.05-.008c.004-.006.015-.022.009-.02zm1.242.166c-.026.024-.087.241-.162.544.045-.03.095-.058.127-.1.051-.066.092-.498.035-.444zm1.322.046c-.035.025-.066.057-.1.084.077-.027.15-.063.1-.084zm-.996.368c-.037.017-.072.04-.107.06.026-.024.106 0 .107-.06zm-1.283.701c.009-.014-.03.015-.037.03a.269.269 0 0 0-.024.048c.02-.026.042-.05.06-.078zm15.386 2.314c.031.047.077.098.102.14.04-.071-.024-.11-.102-.14zm.725.561c.014.024.011.022.03.05.006.01-.01-.02-.014-.033l-.016-.017zm3.221 3.043c.025.042.028.052.082.13.026.04-.035-.092-.07-.122-.004-.004-.009-.005-.012-.008zm3.618 3.556l.032.053c.144.12-.008-.01-.031-.053zm2.526 5.143l.006.008c.042.046.218.12.164.088a3.016 3.016 0 0 0-.17-.096zm1.574 2.301l.008.01c.036.036.176.1.133.072a1.77 1.77 0 0 0-.14-.082zm.792 1.498c.016.033.026.057.044.082.004.005.02-.007.016-.012-.046-.062-.035-.04-.06-.07zm2.492 1.799c-.004.046-.014.037.002.236.003.042.016-.083.015-.125 0-.038-.036-.115-.017-.111zm-1.473.16c.02.066.057.193.076.117a1.484 1.484 0 0 0-.076-.117zm3.176 4.058l.01.024c.004.009.033.02.027.012-.007-.011-.025-.024-.037-.036zm-.857 1.125l.044.06c.115.006.068-.002-.045-.06zm.773 2.125l.043.079c.116.081.06.029-.043-.079zm.693 1.879l.004.006c.06.057.296.146.223.108a6.589 6.589 0 0 0-.227-.114zM90.2 68.765c.002-.003.028-.06.029-.058-.078.046-.16.092-.286.168l.204-.09c-.004.01-.02.034-.008.033.022-.002.043-.027.06-.053zm3.607-5.582l-.098.08c.034.003.067-.033.098-.08zm-2.008.211c-.005.005-.015.007-.02.012-.05.055-.043.145-.064.217.038-.094.059-.155.084-.229zm1.269.67l-.078.07c-.011.012.035-.004.045-.017.013-.017.022-.035.033-.053zm-.451.401c-.083.035-.167.068-.242.117-.052.034.132-.002.182-.04.025-.018.04-.051.06-.077zm-1.763.285c-.008.052-.01.108-.022.158.007-.053.016-.105.022-.158zm-1.744 5.953c-.023.03-.046.059-.067.09-.007.01.025-.01.031-.022.014-.022.024-.045.035-.068zm-2.854 1.812c-.007.01-.005.013-.014.026l.006-.002.008-.024zm-.029.085l-.016.005c-.02.063-.05.175-.033.133.041-.1.028-.08.049-.139zm-.09.035l-.022.007c-.11.154-.059.089.022-.007zm1.451.476c-.04.031-.044.039-.12.098.03.03.08-.035.12-.098zm-1.051.891l-.055.015c.001.006-.001.02.004.018.018-.008.034-.022.051-.033zm-2.217.002l-.006.004c-.043.04-.122.2-.091.15l.097-.154zm-3.06 1.576c-.119.054-.145.063-.076.078l.076-.078zm-.71.375c-.016.01-.036.02-.046.03-.035.132-.021.077.047-.03zm-1.284.892c-.015.005-.035.008-.045.014-.01.007-.013.046-.004.037l.049-.05zm-24.659.366c.018.06.057.078.102.088-.033-.03-.064-.064-.102-.088zm2.518.586c.11.115.11.107.121.095l-.031-.025c-.03-.024-.116-.098-.09-.07zm22.424.423c-.001-.004-.009.003-.047.04.028-.004.063-.01.086-.01-.029-.009-.038-.024-.04-.03zm-20.311.229c-.006-.005-.017.014-.011.02.024.026.058.042.087.062.013.007.042.01.04.02-.04-.035-.07-.067-.116-.102zm16.817.406a.415.415 0 0 0-.08.043c-.005.004.005.02.01.016.024-.018.046-.04.07-.059zm-14.551.807c-.069-.116.087.165.092.17.007.007.017.011.025.017-.038-.062-.078-.12-.117-.187zm12.626.051c-.044.01-.14.031-.136.078.003.033.06-.031.088-.047l.049-.031zm2.122.558c-.004.006.005.02.027.057.027-.016.052-.036.077-.055-.059-.003-.099-.01-.104-.002zm-3.832.209c-.061-.003-.115.003-.082.084.11-.036.09-.04.12-.082l-.038-.002zm1.598.713c-.049.003.096.016.144.016.033 0 .082-.02.096-.014-.08-.003-.16-.007-.24-.002z" fill="#00f" fill-rule="evenodd"/><path d="M60.39 86.713c-2.963-.875-6.783-3.251-8.664-5.388-.659-.748-1.67-2.332-2.249-3.52-.578-1.187-1.412-2.538-1.852-3.002l-.801-.844-2.746.244c-2.695.24-9.682.204-12.046-.06-.66-.074-2.145-.219-3.3-.322-1.155-.103-2.228-.308-2.385-.456-.156-.148-.637-.268-1.067-.268-.43 0-1.045-.199-1.365-.44-.32-.243-.928-.446-1.35-.45-.423-.006-1.03-.209-1.35-.45-.32-.243-.87-.446-1.221-.45-.351-.006-.806-.213-1.012-.46-.205-.248-.728-.455-1.161-.46-.434-.005-1.05-.208-1.371-.45-.32-.242-.895-.44-1.278-.44s-.927-.27-1.21-.6c-.339-.397-.884-.6-1.606-.6-.639 0-1.41-.25-1.856-.6-.42-.33-1.162-.6-1.65-.6s-1.23-.27-1.65-.6c-.42-.33-1.146-.602-1.615-.604-1.25-.005-3.103-.345-3.103-.57 0-.106.452-.663 1.003-1.235.552-.573 1.088-1.386 1.191-1.806.11-.448.596-.98 1.172-1.282 1.332-.7 2.95-1.822 3.717-2.58.347-.344 1.05-.77 1.562-.95.512-.178 1.006-.562 1.099-.853.092-.291.499-.68.904-.865.405-.184.923-.783 1.152-1.33.287-.689.797-1.168 1.651-1.553.68-.307 1.316-.81 1.414-1.12.099-.31.71-.833 1.357-1.164.854-.435 1.178-.79 1.178-1.288 0-.762 1.29-2.125 2.3-2.429.358-.108.791-.6.963-1.094.21-.601.668-1.046 1.386-1.346.614-.257 1.193-.765 1.355-1.19.226-.595.49-.741 1.339-.741 1.042 0 1.454-.246 3.143-1.875.47-.454 1.176-.825 1.568-.825.392 0 .956-.284 1.253-.631.386-.45.768-.587 1.341-.477 1.061.203 2.364-.595 2.548-1.56.107-.556-.094-1.043-.724-1.76-.634-.722-.872-1.303-.872-2.129 0-.837-.197-1.307-.75-1.787-.412-.359-.75-.846-.75-1.083s-.472-.932-1.05-1.544c-.667-.707-1.05-1.41-1.05-1.925 0-.446-.27-1.056-.6-1.354-.33-.3-.6-.737-.6-.973s-.472-.847-1.05-1.358c-.577-.512-1.05-1.088-1.05-1.28 0-.193-.405-.774-.9-1.292s-.9-1.089-.9-1.268c0-.179-.408-.734-.907-1.233-.692-.692-.892-1.142-.84-1.9.036-.545-.08-1.173-.259-1.394-.178-.221-.42-.85-.537-1.396l-.213-.994 1.153.209c.634.115 1.522.395 1.972.623.52.264 1.242.347 1.98.229.764-.122 1.459-.033 2.031.26.62.316 1.084.364 1.612.165.53-.199 1.108-.14 2.015.207.87.333 1.433.396 1.783.2.28-.157.859-.198 1.285-.092.426.105 1.585.16 2.575.123 5.473-.211 6.648-.296 7.126-.512.29-.132.876-.151 1.304-.044.439.11.959.045 1.193-.15.288-.238.67-.255 1.248-.053.458.16 1.642.315 2.631.345.99.03 2.406.117 3.148.193.743.077 2.007.183 2.81.236.976.065 1.553.263 1.74.598.178.317.66.5 1.322.5.826 0 1.113.16 1.391.769.254.557.52.73.969.628.356-.081 1.255.232 2.118.737.825.482 1.732.957 2.015 1.054.283.097.772.614 1.087 1.148.39.66.788.961 1.246.942.37-.015.793.209.938.498.145.288.38.76.521 1.05.142.288.647.593 1.124.677.743.131.91.345 1.168 1.5.17.76.65 1.69 1.102 2.135.714.701 1.088.801 3.45.92 1.751.088 3.005.318 3.7.677 3.926 2.035 8.463 7.256 11.242 12.935 2.188 4.472 2.857 6.993 2.857 10.77 0 2.86-.055 3.122-1.18 5.556-.648 1.405-1.415 3.35-1.704 4.322-.29.977-1.088 2.52-1.783 3.45-1.414 1.892-2.374 3.707-3.59 6.783-1.497 3.792-4.482 7.604-7.62 9.733-2.655 1.802-7.523 4.168-9.323 4.53a308 308 0 0 0-3.6.76c-2.887.634-5.738.516-8.692-.357zM56.482 70.66c0-.362-.821-.333-1.05.037-.324.524.157.968.627.577.233-.193.423-.47.423-.614zm-3.15.016c0-.232-.236-.467-.525-.522-.517-.1-.73.537-.318.949.314.314.843.046.843-.427zm1.05-2.08c0-.164-.06-.3-.132-.3-.073 0-.216.136-.318.3-.102.166-.042.3.133.3a.31.31 0 0 0 .317-.3zm1.275-1.552c.828-.423.615-.847-.426-.847-.897 0-2.049.696-2.049 1.239 0 .28 1.683.013 2.475-.392zm8.025-2.518c5.861-.21 7.752-.314 10.59-.576 2.477-.23 2.692-.305 3.45-1.212.446-.531 1.107-1.058 1.47-1.17.745-.228.863-.531 1.134-2.916.125-1.104.392-1.876.767-2.215.316-.286.512-.623.434-.748-.077-.126-.157-1.086-.178-2.135-.029-1.443-.175-2.038-.602-2.444-.68-.647-.728-1.113-.115-1.113.63 0 .565-.348-.3-1.622-.412-.608-.75-1.237-.75-1.398 0-.16-.348-.844-.774-1.519-.426-.674-.849-1.687-.94-2.251-.249-1.531-.592-1.482-.829.118-.115.782-.379 1.624-.585 1.872-.206.247-.617 1.26-.913 2.25-.297.99-.723 2.013-.949 2.273-.225.26-.41.613-.41.784 0 .319-1.164 1.955-2.52 3.543l-1.876 2.192c-.608.711-1.836 1.778-2.73 2.37-.892.594-1.905 1.46-2.25 1.927-.345.467-1.11 1.003-1.7 1.192-.59.19-1.276.513-1.524.72-.906.755-3.409 1.648-4.613 1.647-2.79-.004-4.358-.977-5.15-3.195l-.41-1.153-.014 1.114c-.01.826.224 1.384.9 2.154 1.191 1.357 2.754 1.854 5.462 1.739 1.196-.05 3.863-.153 5.925-.228zM89.67 51.153c-.261-1.304-1.534-3.29-4.33-6.757-3.03-3.759-5.617-6.22-8.457-8.048-4.68-3.012-5.34-3.497-6.954-5.097-.911-.904-2.09-2.456-2.619-3.45-.529-.992-.994-1.804-1.034-1.804-.04 0-.065 1.053-.057 2.34.013 2.153-.055 2.424-.853 3.375-.477.57-1.342 1.305-1.922 1.635-1.463.832-2.132 1.867-2.228 3.45-.077 1.253-.03 1.35.648 1.35.561 0 .786-.21.965-.905.13-.497.904-1.655 1.722-2.573.818-.918 1.782-2.232 2.14-2.92.36-.69.767-1.252.906-1.252.138 0 1.036.72 1.994 1.6.958.881 3.227 2.728 5.042 4.104 6.474 4.907 9.098 7.618 12.886 13.312 1.817 2.73 2.468 3.226 2.15 1.64z" fill="#91aa4a"/><path d="M62.332 87.16c-3.666-.846-6.379-2.234-9.3-4.76-1.763-1.524-2.742-2.88-3.6-4.985-.873-2.147-2.812-4.307-3.603-4.014-1.315.486-8.247.468-8.247-.022 0-.175.102-.256.225-.18.124.075.256-.39.293-1.033.068-1.158-.323-1.518-.983-.905-.156.146-.926.357-1.71.469-1.178.168-1.425.122-1.425-.265 0-.517-1.053-.649-1.35-.168-.316.511-1.058.33-1.297-.317-.225-.608-.24-.61-.966-.052-.763.586-1.943.703-2.634.26-.259-.166-.647-.02-1.116.42l-.718.676-.302-.794c-.353-.929-.526-.968-1.275-.29-.767.694-1.345.136-.839-.81.287-.535.277-.72-.047-.923-.303-.19-.324-.384-.084-.77.528-.847 1.028-.825 1.028.047 0 .597.132.771.525.696.29-.055.568-.4.62-.767.1-.701.237-.735 2.777-.698 1.106.016 1.561-.149 2.346-.85 1.097-.98.83-1.45-.448-.788-.463.24-.887.392-.942.337-.286-.286.693-1.66 1.238-1.737.437-.062.753-.455 1.017-1.265.399-1.22 1.337-2.334 2.242-2.665.29-.105.525-.398.525-.651 0-.344-.336-.46-1.332-.46-1.301 0-1.982-.37-1.373-.746.168-.104.306-.552.307-.996.001-.444.206-1.199.456-1.678.405-.777.405-.924-.002-1.373-.67-.74-.556-1.206.294-1.206.634 0 .75-.14.75-.9 0-.6.15-.9.45-.9.248 0 .45-.18.45-.4 0-.737-.33-.743-1.054-.019-.395.395-1.013.719-1.374.719-.618 0-.645.098-.48 1.7.182 1.768-.022 2.461-1.066 3.608-.424.466-.543.882-.407 1.425.142.565.075.767-.254.767-.25 0-.378-.177-.292-.402.085-.221-.054-.576-.309-.787-.616-.511-.585-.81.101-.99.993-.259.959-3.821-.037-3.821-.125 0-.228.661-.228 1.47 0 1.358-.068 1.494-.881 1.778-.684.238-.962.211-1.237-.12-.525-.633-.951-.52-.725.193.15.47.045.66-.433.785-.665.174-1.107 1.283-.815 2.043.113.295-.009.45-.351.45-.288 0-.84.222-1.225.492-.386.27-1.395.545-2.242.612-2.42.19-3.265.318-4.365.662-.564.177-1.339.242-1.722.146-.488-.122-.756-.024-.89.327-.3.781.263 1.131 1.23.764.461-.175.891-.267.955-.204.25.25-.288 1.102-.698 1.102-.239 0-.828.43-1.31.958-.81.886-1.038.965-3.043 1.045-1.547.062-2.365-.042-2.858-.365-.82-.538-.898-1.038-.162-1.038.614 0 1.383-1.079 1.098-1.54-.114-.184-.616-.235-1.21-.124-.9.169-1.016.117-1.016-.458 0-.532-.136-.622-.757-.504-.416.08-.826.034-.91-.102-.176-.286 1.414-1.172 2.102-1.172.259 0 .465-.256.465-.577 0-.399.283-.638.92-.778.537-.118 1.048-.485 1.23-.885.189-.414.774-.822 1.481-1.034.643-.193 1.17-.534 1.17-.759 0-.224.472-.687 1.05-1.028.744-.44 1.05-.832 1.05-1.353 0-.575.299-.878 1.39-1.406.764-.37 1.457-.93 1.539-1.244.082-.314.739-.848 1.46-1.187 1.091-.513 1.31-.757 1.31-1.46 0-1.035 1.219-2.09 2.413-2.09.669 0 .802-.11.682-.569-.23-.877.403-1.76 1.422-1.984.56-.123 1.051-.486 1.25-.925.264-.576.557-.721 1.461-.721.868 0 1.176-.14 1.322-.6.105-.33.522-.682.928-.784.406-.102.874-.44 1.04-.751.192-.356.628-.565 1.182-.565.572 0 .991-.21 1.2-.6.248-.463.628-.6 1.66-.6.738 0 1.34-.12 1.34-.265 0-.146.261-.334.58-.417.423-.11.606-.465.675-1.31.08-.982-.056-1.304-.897-2.115-.855-.824-.966-1.094-.804-1.957.161-.859.057-1.117-.733-1.82-.506-.452-.92-1.06-.92-1.352 0-.292-.406-.886-.9-1.32-.583-.511-.9-1.076-.9-1.6 0-.444-.338-1.209-.75-1.7-.413-.49-.75-1.079-.75-1.309 0-.23-.406-.717-.9-1.083-.496-.366-.9-.885-.9-1.153s-.406-.875-.9-1.35c-.496-.474-.867-1.033-.826-1.242.041-.209-.397-.778-.975-1.264-.577-.487-.95-.987-.827-1.112.123-.125.471-.004.774.27.745.675 1.15.627 1.355-.16.16-.607.214-.621.71-.184.648.57 3.052 1.743 3.574 1.743.206 0 .46.27.564.6.296.932 1.09.76.987-.215-.063-.59.064-.845.462-.926.473-.097.534.06.45 1.153-.096 1.234-.068 1.277 1.088 1.683.653.229 1.463.66 1.8.957.337.297 1.596 1 2.797 1.56 1.201.561 2.386 1.328 2.632 1.704.247.376.661.684.922.684.26 0 1.135.37 1.943.825 1.466.823 1.924 1.575.96 1.575-.403 0-.433.077-.143.367.29.29.497.286.983-.017.486-.304.71-.308 1.057-.02.326.272.349.423.086.586-.27.166-.273.455-.014 1.196.187.537.34 1.294.34 1.682 0 .388.135.706.3.706.165 0 .3-.389.3-.863s.087-1.296.193-1.827c.166-.83.29-.94.9-.787l1.457.362c.56.138.75.065.75-.286a.917.917 0 0 0-.406-.71c-.753-.445-1.11-1.534-.91-2.784.158-.984.272-1.15.605-.873.226.188.411.534.411.77s.338.926.75 1.533c.831 1.223.927 1.89.393 2.744-.448.718.117 1.52 1.069 1.52.351 0 1.616.428 2.81.953 1.195.524 2.251.875 2.348.778.301-.301-.66-1.823-2.093-3.31-.757-.787-1.377-1.699-1.377-2.026 0-.394-.201-.594-.6-.594-.774 0-.77-.488.007-.904.687-.368 1.193-.168 1.193.471 0 .238.2.433.445.433.4 0 1.457.97 2.935 2.692.5.583.582.591 1.445.145 1.18-.61 2.485-.47 2.628.281.081.429-.016.521-.396.376-.277-.107-1.034-.11-1.68-.006-1.057.169-1.177.278-1.177 1.062 0 .48-.256 1.24-.57 1.687-.84 1.2-1.07 2.463-.446 2.463.404 0 .466.219.336 1.188-.205 1.524.14 1.785 2.105 1.59 1.627-.16 2.022-.496.975-.828-.895-.285-.752-.642.944-2.348.849-.854 1.374-1.318 1.166-1.031-.207.286-.29.746-.185 1.022.176.456.24.45.728-.071.294-.315 1.034-.84 1.644-1.167.92-.493 1.212-.532 1.703-.225.326.203.808.37 1.072.37 1.136 0 12.128 8.81 12.128 9.72 0 .137.652 1.009 1.448 1.939 4.142 4.836 6.593 10.309 6.765 15.106.043 1.181.217 2.194.387 2.251 1.226.409 1.58-3.685.5-5.766-.342-.66-.72-2.01-.838-3-.258-2.155-2.103-6.13-3.717-8.01a34.396 34.396 0 0 1-1.992-2.602c-1.403-2.08-5.956-6.125-9.888-8.788-4.3-2.91-5.967-4.324-7.285-6.178-1.298-1.825-1.236-2.107.207-.947 1.007.81 1.427.951 2.775.939.89-.009 2.38-.315 3.388-.697 2.726-1.033 6.899-1.003 9.15.066.908.431 2.361 1.356 3.23 2.055 1.826 1.468 6.764 7.876 7.623 9.892.32.753.91 2.045 1.308 2.87 1.226 2.538 2.028 6.548 1.86 9.308-.12 1.97-.336 2.789-1.19 4.5-.574 1.15-1.334 3.061-1.69 4.247-.388 1.296-1.06 2.67-1.686 3.45-1.314 1.636-2.539 3.944-3.723 7.015-1.71 4.436-4.203 7.664-7.748 10.035-3.474 2.324-7.394 4.116-9.834 4.496-1.155.18-2.765.523-3.58.763-1.636.482-4.177.523-6.02.099zm-8.31-13.071c.072-.478-.12-.654-.88-.806-.535-.107-1.1-.066-1.256.09-.408.408-.006 1.244.505 1.048.237-.091.524-.014.638.17.306.496.89.2.994-.502zm-1.856-2.014c-.15-.6-.085-.697.387-.573.312.082.842.002 1.177-.177.783-.42 1.449-.157 1.66.654.157.596.22.568.888-.395.877-1.266.586-1.763-.74-1.263-.641.243-1.112.26-1.496.054-.593-.318-.762-.878-.263-.878.162 0 .637-.54 1.053-1.2.643-1.02.913-1.2 1.785-1.2 1.65 0 2.64.492 2.415 1.2-.135.425-.054.6.28.6.259 0 .47-.195.47-.433 0-.754.455-.773 3.79-.156 11.08 2.05 25.31 2.916 25.31 1.54 0-.131-.91-.24-2.025-.24-2.433-.003-4.25-.342-4.913-.915-.421-.365-.512-.36-.665.04-.23.597-1.397.608-1.397.014 0-.248.214-.45.474-.45s1.431-.507 2.6-1.125c2.117-1.12 3.24-2.363 3.445-3.812.048-.337.253-1.018.457-1.513.228-.553.351-2.117.32-4.05-.045-2.737-.167-3.426-.931-5.25-1.254-2.995-2.482-4.952-4.714-7.51-1.073-1.23-1.95-2.388-1.95-2.571 0-.184-.892-1.191-1.982-2.239-1.883-1.81-2.924-2.395-4.619-2.593-1.188-.139-1.106.493.09.688 1.841.299 3.15 1.424 3.487 2.997.336 1.567.225 2.226-.728 4.328-.374.825-.772 1.929-.884 2.454-.112.525-.397 1.115-.634 1.312-.237.196-.43.605-.43.908 0 .502-2.027 3.197-4.553 6.054-.549.621-1.751 1.603-2.672 2.183-.92.58-1.958 1.438-2.306 1.909-.348.47-1.004.948-1.458 1.062-.454.114-1.17.45-1.593.746-1.475 1.033-3.373 1.417-6.227 1.258-1.049-.058-2.214-1.287-2.748-2.898-.646-1.95-1.384-2.026-1.417-.148l-.023 1.34-1.627.056c-.895.031-1.998.201-2.452.378-.886.344-1.136 1.236-.347 1.236.263 0 .542.243.62.54.104.399.632.628 1.997.868 2.254.396 4.086.872 4.343 1.13.351.35-.44 1.204-1.36 1.468-.905.26-.907.264-.32.85.323.325.78.516 1.016.426.234-.09.426-.033.426.127s-.18.29-.399.29c-.22 0-.573.372-.785.826a50.434 50.434 0 0 1-.668 1.373c-.188.366-.165.69.072.975.55.663.965.503.764-.295zm7.294-.302c.251-.302.258-.48.024-.626-.348-.215-1.202.344-1.202.786 0 .415.79.307 1.178-.16zM45.887 70.64c-.096-.239-.167-.168-.181.182-.013.316.058.493.158.393.1-.1.11-.358.023-.575zm-19.255-.843a.59.59 0 0 0-.375-.525c-.223-.075-.375.138-.375.525 0 .386.152.599.375.525a.59.59 0 0 0 .375-.525zm3.22-.18c.622-.032 1.13.063 1.13.21 0 .5.558.274 1.536-.619.845-.772.904-.915.448-1.09-.288-.11-.677-.048-.864.139-.187.187-1.03.34-1.872.34-1.611 0-2.79.564-2.423 1.159.12.193.374.253.566.134.192-.118.858-.242 1.48-.273zm29.78.18c.102-.165.043-.3-.132-.3s-.318.135-.318.3c0 .165.06.3.133.3.072 0 .215-.135.317-.3zm-1.95-.6a.3.3 0 0 0-.3-.3.3.3 0 0 0-.3.3.3.3 0 0 0 .3.3.3.3 0 0 0 .3-.3zm-23.1-.6c0-.165-.202-.3-.45-.3-.247 0-.45.135-.45.3 0 .165.203.3.45.3.248 0 .45-.135.45-.3zm21.45 0c.102-.165.05-.3-.114-.3-.165 0-.384.135-.486.3-.102.165-.05.3.115.3s.383-.135.485-.3zm-19.93-.311c.74-.396.749-.89.017-.89-.626 0-1.342.695-1.034 1.003.26.26.335.252 1.017-.113zm12.58-1.34c0-.247-.135-.45-.3-.45-.165 0-.3.203-.3.45 0 .248.135.45.3.45.165 0 .3-.202.3-.45zm-14.246-1.053c.365-.405.596-1.083.596-1.753 0-1.05.042-1.093 1.05-1.093.967 0 1.043-.066.964-.825-.099-.942-.074-.954 1.001-.464.674.307.836.284 1.079-.15.157-.281.417-.511.577-.511.413 0 2.68-1.463 2.68-1.73-.001-.279-6.37-.248-6.826.034-.245.151-.218.498.1 1.259.39.931.387 1.07-.018 1.225-.251.097-.457.302-.457.457 0 .154-.742 1.006-1.65 1.892-1.778 1.736-1.93 2.076-1.132 2.522.591.331 1.18.081 2.036-.863zm4.375.583c.48-.341.871-.837.871-1.102 0-.383-.153-.338-.75.223-.412.387-.75.608-.75.491 0-.117-.27-.068-.6.109-.33.176-.6.45-.6.61 0 .488.91.323 1.829-.33zm52.471-.915c0-.165-.135-.216-.3-.114-.165.102-.3.32-.3.485 0 .165.135.217.3.115.165-.102.3-.32.3-.486zm-80.185-.75c-.288-.288-1.143.496-.926.848.108.176.373.104.654-.177.26-.259.382-.561.272-.671zm.085-1.182c0-.257-.137-.383-.305-.28-.167.104-.227.315-.132.468.257.416.437.339.437-.188zm1.65-.732c.102-.165.043-.3-.132-.3s-.318.135-.318.3c0 .165.06.3.133.3.072 0 .215-.135.317-.3zm31.65-3.9a.3.3 0 0 0-.3-.3.3.3 0 0 0-.3.3.3.3 0 0 0 .3.3.3.3 0 0 0 .3-.3zm1.978-.268c.62-.489.653-.595.229-.758-.542-.208-1.69.647-1.432 1.066.23.371.391.33 1.203-.308zm-12.85-.98c.263-.263.46-.254.81.037.314.26.462.276.462.047 0-.185-.135-.336-.3-.336-.165 0-.3-.338-.3-.75 0-1.011-.637-.945-1.248.129-.624 1.097-.237 1.686.576.873zm-9.228-1.452a.3.3 0 0 0-.3-.3.3.3 0 0 0-.3.3.3.3 0 0 0 .3.3.3.3 0 0 0 .3-.3zm1.2 0c0-.165-.202-.3-.45-.3-.247 0-.45.135-.45.3 0 .165.203.3.45.3.248 0 .45-.135.45-.3zm10.408-1.18c.083-.318.34-.652.572-.74.231-.089.42-.488.42-.886 0-.472.21-.78.6-.881.789-.207.762-.706-.06-1.146-.508-.271-.688-.271-.779 0-.065.195-.443.74-.84 1.212a2.995 2.995 0 0 0-.72 1.939c0 1.142.55 1.485.807.502zm3.992-1.82a.3.3 0 0 0-.3-.3.3.3 0 0 0-.3.3.3.3 0 0 0 .3.3.3.3 0 0 0 .3-.3zm16.98-1.555c.934-.838 1.811-3.634 1.455-4.64-.156-.443-.45-.861-.653-.929-.58-.192-1.807 1.344-1.925 2.408-.18 1.631.037 2.682.516 2.499.24-.093.427.013.427.244 0 .461-.812.862-1.227.606-.15-.093-.273.037-.273.29 0 .558.77.339 1.68-.478zm-27.281-.32c-.083-.207-.151-.038-.151.375 0 .412.068.58.151.375a1.158 1.158 0 0 0 0-.75zm2.609-.886c.367-.584.301-.685-.634-.973-.477-.146-.73-.069-.857.263-.47 1.223.79 1.822 1.49.71zm3.492.247c0-.227-.202-.581-.45-.786-.36-.3-.544-.296-.92.016-.42.348-.395.433.225.776.902.501 1.145.5 1.145-.006zm11.1-1.086c0-.165-.143-.3-.317-.3-.175 0-.235.135-.133.3.102.165.245.3.318.3.073 0 .132-.135.132-.3zm-9.304-3.712c.004-.458.085-.495.441-.2.418.347 1.068.205 1.059-.231-.015-.647-.53-.923-1.326-.71-.655.175-.877.431-.948 1.093-.05.476-.014.99.08 1.144.224.362.688-.371.694-1.096zm-1.849-.9c.062-.31-.103-.487-.45-.484-.894.008-1.287.417-1.097 1.143.16.615.233.638.813.253.35-.232.681-.642.734-.911zm4.253-2.906c0-.34-.129-.538-.287-.44-.157.097-.21.375-.117.617.237.62.404.547.404-.177zm13.006-6.507c-.264-1.897-.357-2.053-.898-1.512-.406.406-.417.62-.079 1.554.532 1.47 1.184 1.442.977-.042zm2.894.542c0-.155-.135-.365-.3-.467-.165-.102-.3.025-.3.282 0 .257.135.468.3.468.165 0 .3-.128.3-.283zm-8.7-.317a.3.3 0 0 0-.3-.3.3.3 0 0 0-.3.3.3.3 0 0 0 .3.3.3.3 0 0 0 .3-.3zm2.1-1.5c0-.165-.06-.3-.132-.3-.073 0-.216.135-.318.3-.102.165-.042.3.133.3.174 0 .317-.135.317-.3zm1.985-3.042l-.485-.692v.767c0 .903.297 1.29.69.897.173-.173.095-.544-.205-.972zm-4.535.342c.102-.165.043-.3-.132-.3s-.318.135-.318.3c0 .165.06.3.133.3.072 0 .215-.135.317-.3zm-.75-3.544c0-.134-.405-.543-.9-.909-.894-.66-.9-.661-.9-.047 0 .361.281.732.675.89.873.35 1.125.366 1.125.066zm-9.956 45.339c.217-.087.475-.076.575.023.1.1-.077.17-.394.158-.35-.015-.42-.086-.18-.181zm-17.344-3.86c0-.364.917-1.08 1.244-.97.186.061-.018.345-.453.63-.435.285-.79.438-.79.34zm3.15-2.835c.82-.353 1.05-.353 1.05 0 0 .165-.37.29-.825.278-.73-.018-.756-.05-.225-.278zm6.15-3c0-.165.143-.3.318-.3.175 0 .234.135.132.3-.102.165-.245.3-.317.3-.073 0-.133-.135-.133-.3zm1.191-1.184c.344-.642.915-1.092.9-.71-.013.335-.761 1.294-1.01 1.294-.11 0-.061-.263.11-.584zm-3.217-2.491c.147-.448 1.267-.656 1.973-.367.448.183.437.233-.097.453-.945.388-2.016.34-1.876-.086zM61.882 32.31c0-.172.321-.313.714-.313.392 0 .88-.203 1.086-.45.634-.764 1.21-.48.67.331-.303.458-2.47.837-2.47.432zm-12.84-5.773c-.413-.414-.493-1.258-.096-1.013.227.14.692 1.373.518 1.373-.034 0-.224-.162-.422-.36zm-1.11-1.74c-.102-.165-.042-.3.133-.3.174 0 .317.135.317.3 0 .165-.06.3-.132.3-.073 0-.216-.135-.318-.3zm6.75-.733c0-.257.135-.467.3-.467.165 0 .3.127.3.282 0 .155-.135.366-.3.468-.165.102-.3-.026-.3-.283zm-4.35-.467c.102-.165.245-.3.318-.3.073 0 .132.135.132.3 0 .165-.143.3-.317.3-.175 0-.235-.135-.133-.3zm1.95-.733c0-.257.135-.467.3-.467.165 0 .3.127.3.282 0 .155-.135.366-.3.468-.165.102-.3-.026-.3-.283zm-21.676-5.942c-.187-.556.104-1.444.41-1.254.352.217.344 1.629-.009 1.629-.15 0-.331-.17-.4-.375z" fill="#84a63a"/><path d="M62.332 87.16c-3.666-.846-6.379-2.234-9.3-4.76-1.763-1.524-2.742-2.88-3.6-4.985-.871-2.143-2.812-4.306-3.601-4.017-.33.121-1.028.156-1.553.078l-.954-.141 1.034-1.034c.569-.569 1.167-.952 1.33-.852.378.235.375-.763-.006-1.352-.248-.385-.291-.374-.295.075-.003.315-.234.525-.58.525-.316 0-.63.163-.696.363-.094.284-.397.281-1.375-.012-1.312-.393-1.69-.951-.644-.951.613 0 .787-.247.951-1.35.064-.428-.084-.604-.511-.612-.922-.017-1.35-.402-1.35-1.216 0-.408-.202-.819-.45-.914-.247-.095-.45-.445-.45-.778 0-.52-.134-.579-.955-.414-.525.105-1.177.392-1.449.637-.642.581-1.086.566-1.32-.046-.12-.311.04-.652.436-.93.345-.24.75-.762.9-1.158.15-.396.473-.72.717-.72s.77-.303 1.167-.674a42.963 42.963 0 0 1 1.964-1.667c.682-.546 1.24-1.086 1.24-1.2 0-.115-1.046-.174-2.325-.132-3.131.104-3.629-.031-3.456-.937.076-.395-.01-.81-.19-.922-.48-.296-.401-1.234.14-1.683.284-.236.405-.648.306-1.043-.119-.474.088-.876.756-1.472.506-.45.986-.753 1.067-.672.156.156-.65 1.874-1.203 2.565-.182.228-.36.87-.396 1.427-.059.922-.011.985.524.698.325-.173.714-.239.865-.145.152.094.28-.069.285-.361.024-1.363.403-2.433.808-2.278.508.195.544-.312.076-1.06-.262-.42-.244-.863.075-1.872.394-1.243.487-1.325 1.583-1.386.64-.035 1.394-.272 1.675-.526.46-.417.605-.416 1.46.01 1.024.511 1.133.728.62 1.24-.405.405-.07 1.59.448 1.59.208 0 .67-.311 1.029-.692.572-.61.606-.79.277-1.498-.206-.443-.576-.829-.824-.858-.247-.03-.652-.084-.9-.12a16.76 16.76 0 0 0-.813-.1c-.59-.051-2.896-2.497-3.426-3.633a21.336 21.336 0 0 1-.882-2.353c-.262-.866-.624-1.392-1.078-1.564-.376-.143-.768-.597-.872-1.009-.103-.411-.377-.905-.608-1.097-.231-.192-.42-.808-.42-1.37 0-.812.152-1.078.75-1.305.526-.2.75-.511.75-1.043 0-.875-.236-.961-.74-.272-.324.444-.432.445-1.271.01-.76-.392-1.29-1.029-1.29-1.549 0-.057.232-.335.515-.618.486-.487.453-.568-.6-1.479-.693-.599-1.12-1.235-1.126-1.681-.008-.47-.337-.926-.954-1.318-1.155-.736-1.41-1.35-.56-1.35.356 0 .625-.194.625-.45a.45.45 0 0 0-.445-.45c-.246 0-.812-.574-1.258-1.275-.447-.702-1.15-1.647-1.56-2.1-.584-.644-.643-.825-.27-.825.821 0 2.933 1.565 2.933 2.174 0 .622.667 1.426 1.183 1.426.179 0 .627.156.996.346.37.19.874.446 1.121.567.466.227.488.538.126 1.746-.186.617-.133.683.405.512.34-.108.709-.05.82.129.11.178.435.25.722.158.74-.235 1.473 1.134.947 1.768-.204.246-.284.588-.178.76.383.62.758.295.763-.661.006-1.365.41-1.952 1.004-1.46.25.208.512.672.582 1.031.127.65.128.65.168-.021.023-.372.222-.675.444-.675.277 0 .409.442.424 1.416.011.779.168 1.465.347 1.525.496.165.39.807-.222 1.362-.821.743-1.008.613-.9-.628.082-.957.007-1.125-.503-1.125-.475 0-.618.231-.692 1.125-.078.946 0 1.125.49 1.125.322 0 .813.348 1.092.775.487.742.533.753 1.085.253.317-.287.576-.705.576-.929 0-.224.12-.642.265-.929.145-.286.423-1.195.617-2.02.407-1.729.765-2.224 1.253-1.736.246.246.206.592-.15 1.306-.267.535-.485 1.33-.485 1.768 0 .438-.198 1.059-.44 1.38-.586.774-.573 1.332.032 1.332.27 0 .642.199.825.442.384.51 2.583.863 2.583.415 0-.163-.146-.57-.324-.903-.178-.333-.25-.681-.157-.773.265-.265 1.08.542 1.09 1.08.018.874.793 1.61 1.47 1.396.666-.212.875-1.357.246-1.358-.234 0-.373-.423-.371-1.125.001-.618.1-1.124.219-1.124.31 0 1.427 2.278 1.427 2.913 0 .397.236.537.91.537 1.016 0 1.46-.663.9-1.34-.22-.265-.27-.699-.129-1.121.127-.38.194-1.008.15-1.398-.057-.486.044-.663.318-.563.22.08.361.318.312.527-.05.21.048.776.217 1.258.221.636.191 1.368-.11 2.656-.227.978-.3 1.849-.162 1.934.307.19.412.018.878-1.428.2-.62.543-1.125.763-1.125.284 0 .386-.411.352-1.415-.039-1.129.057-1.436.475-1.522.376-.077.472.028.341.37-.198.517.411 2.267.79 2.267.368 0 .599-.863.282-1.059-.54-.334-.287-.741.463-.741.554 0 .75.159.75.609 0 .335.203.687.45.782.29.111.45.576.45 1.309 0 1.342.242 1.475 2.328 1.274 1.623-.156 2.02-.492.972-.824-.895-.285-.752-.642.944-2.348.849-.854 1.374-1.318 1.166-1.031-.207.286-.29.746-.185 1.022.176.456.24.45.728-.071.294-.315 1.034-.84 1.644-1.168.92-.492 1.212-.531 1.703-.225.326.204.808.37 1.072.37 1.135 0 12.128 8.812 12.128 9.722 0 .136.652 1.008 1.448 1.938 4.142 4.836 6.593 10.309 6.765 15.106.043 1.181.217 2.194.387 2.251 1.225.409 1.58-3.685.5-5.766-.342-.66-.72-2.01-.838-3-.258-2.155-2.103-6.13-3.717-8.011a34.396 34.396 0 0 1-1.992-2.601c-1.403-2.08-5.956-6.125-9.888-8.788-4.3-2.91-5.967-4.324-7.285-6.178-1.298-1.825-1.236-2.107.207-.947 1.007.81 1.427.951 2.775.939.89-.009 2.38-.315 3.388-.697 2.726-1.033 6.899-1.003 9.15.066.908.431 2.361 1.356 3.23 2.055 1.826 1.468 6.764 7.876 7.623 9.892.32.753.91 2.045 1.308 2.87 1.226 2.538 2.028 6.548 1.86 9.308-.12 1.97-.336 2.789-1.19 4.5-.574 1.15-1.334 3.061-1.69 4.247-.388 1.296-1.06 2.67-1.686 3.45-1.314 1.636-2.539 3.944-3.723 7.015-1.71 4.436-4.203 7.664-7.748 10.035-3.474 2.324-7.394 4.116-9.834 4.496-1.155.18-2.765.523-3.58.763-1.636.482-4.177.523-6.02.098zm-8.31-13.071c.072-.478-.12-.654-.88-.806-.535-.107-1.1-.066-1.256.09-.408.408-.006 1.244.505 1.048.237-.091.524-.014.638.17.306.496.89.2.994-.502zm-1.856-2.014c-.15-.6-.085-.697.387-.573.312.082.842.002 1.177-.177.783-.42 1.449-.157 1.66.654.157.596.22.568.888-.395.877-1.266.586-1.763-.74-1.263-.641.243-1.112.26-1.496.054-.593-.318-.762-.878-.263-.878.162 0 .637-.54 1.053-1.2.643-1.02.913-1.2 1.785-1.2 1.65 0 2.64.492 2.415 1.2-.135.425-.054.6.28.6.259 0 .47-.195.47-.433 0-.754.455-.773 3.79-.156 11.08 2.05 25.31 2.916 25.31 1.54 0-.131-.91-.24-2.025-.24-2.433-.003-4.25-.342-4.913-.915-.421-.365-.512-.36-.665.04-.23.597-1.397.608-1.397.014 0-.248.214-.45.474-.45s1.431-.507 2.6-1.125c2.117-1.12 3.24-2.363 3.445-3.812.048-.337.253-1.018.457-1.513.228-.553.351-2.117.32-4.05-.045-2.737-.167-3.426-.931-5.25-1.254-2.995-2.482-4.952-4.714-7.51-1.073-1.23-1.95-2.388-1.95-2.571 0-.184-.892-1.191-1.982-2.239-1.883-1.81-2.924-2.395-4.619-2.593-1.188-.139-1.106.493.09.688 1.841.299 3.15 1.424 3.487 2.997.336 1.567.225 2.226-.728 4.328-.374.825-.772 1.929-.884 2.454-.112.525-.397 1.115-.634 1.312-.237.196-.43.605-.43.908 0 .502-2.027 3.197-4.553 6.054-.549.621-1.751 1.603-2.672 2.183-.92.58-1.958 1.438-2.306 1.909-.348.47-1.004.948-1.458 1.062-.454.114-1.17.45-1.593.746-1.475 1.033-3.373 1.417-6.227 1.258-1.049-.058-2.214-1.287-2.748-2.898-.656-1.98-1.36-2.009-1.485-.062-.086 1.333-.138 1.415-.8 1.249-.39-.098-1.463-.022-2.384.17-1.334.276-1.675.465-1.675.926 0 .33.206.579.478.579.263 0 .542.243.62.54.104.399.632.628 1.997.868 2.254.396 4.086.872 4.343 1.13.351.35-.44 1.204-1.36 1.468-.905.26-.907.264-.32.85.323.325.78.516 1.016.426.234-.09.426-.033.426.127s-.18.29-.399.29c-.22 0-.573.372-.785.826a50.434 50.434 0 0 1-.668 1.373c-.188.366-.165.69.072.975.55.663.965.503.764-.295zm7.294-.302c.251-.302.258-.48.024-.626-.348-.215-1.202.344-1.202.786 0 .415.79.307 1.178-.16zm.172-1.976c.102-.165.043-.3-.132-.3s-.318.135-.318.3c0 .165.06.3.133.3.072 0 .215-.135.317-.3zm-1.95-.6a.3.3 0 0 0-.3-.3.3.3 0 0 0-.3.3.3.3 0 0 0 .3.3.3.3 0 0 0 .3-.3zm-1.65-.6c.102-.165.05-.3-.114-.3-.165 0-.384.135-.486.3-.102.165-.05.3.115.3s.383-.135.485-.3zm-10.35-1.2c0-.165-.143-.3-.317-.3-.175 0-.235.135-.133.3.102.165.245.3.318.3.073 0 .132-.135.132-.3zm3-.45c0-.248-.135-.45-.3-.45-.165 0-.3.202-.3.45 0 .247.135.45.3.45.165 0 .3-.203.3-.45zm-5.875-.643c.104-.272.125-.558.045-.637-.279-.28-1.07.216-1.07.67 0 .614.787.589 1.025-.033zm48.475-.743c0-.165-.135-.216-.3-.114-.165.102-.3.32-.3.485 0 .165.135.217.3.115.165-.102.3-.32.3-.486zm-49.161-.19c.02-.123.069-.51.107-.859.038-.348.157-.778.266-.954.459-.741-.53-.66-1.334.11-.819.784-.842.87-.379 1.382.5.552 1.269.736 1.34.322zm2.661-3.674c-.238-.148-.5-.2-.582-.118-.083.083.044.27.282.418.238.147.5.2.583.117.082-.083-.045-.27-.283-.417zm.709-1.65c-.1-.262-.003-.455.234-.461.465-.013 2.256-1.4 2.046-1.584-.478-.418-1.76-.45-2.091-.053-.42.506-1.198.602-1.198.148a.3.3 0 0 1 .3-.3c.471 0 .34-.68-.286-1.496-.72-.938-.927-.732-.96.953-.036 1.769.201 2.429 1.019 2.833.963.477 1.132.47.936-.04zm-3.409-5.25c0-.165-.143-.3-.317-.3-.175 0-.235.135-.133.3.102.165.245.3.318.3.073 0 .132-.135.132-.3zm.89-2.38c.17-.32.31-.802.31-1.073 0-.827-.923-.368-1.362.678-.379.903-.366.975.166.975.316 0 .715-.262.886-.58zm13.99-.675c.934-.838 1.811-3.634 1.455-4.64-.156-.443-.45-.861-.653-.929-.58-.192-1.807 1.344-1.925 2.408-.18 1.631.037 2.682.516 2.499.24-.093.427.013.427.244 0 .461-.812.862-1.227.606-.15-.093-.273.037-.273.29 0 .558.77.339 1.68-.478zm-.519-11.148c.396-.478.151-.797-.61-.797-.538 0-.749.601-.35 1 .302.303.59.242.96-.203zm2.712-1.767c.299.107.365 0 .225-.364-.109-.284-.198-.623-.198-.754 0-.237-1.605-.658-2.025-.53-.122.037-.24.44-.263.897-.051 1.01.725 1.562 1.388.988.248-.214.64-.32.873-.237zm-21.573-7.72c0-.16-.27-.434-.6-.61-.33-.177-.6-.52-.6-.761 0-.242-.135-.44-.3-.44-.504 0-.335.674.353 1.406.685.73 1.147.893 1.147.405zm-2.7-3.443c0-.073-.135-.215-.3-.317-.165-.102-.3-.043-.3.132s.135.318.3.318c.165 0 .3-.06.3-.133zm3.9 42.628c0-.283 1.164-1.395 1.46-1.395.515 0 .407.633-.185 1.082-.481.366-1.275.56-1.275.313zm-4.2-9.178c0-.155.135-.365.3-.467.165-.102.3.025.3.282 0 .257-.135.468-.3.468-.165 0-.3-.128-.3-.283zm.9-2.885c0-.257.135-.384.3-.282.165.102.3.312.3.467 0 .155-.135.283-.3.283-.165 0-.3-.21-.3-.468zm-22.05-.432c.102-.165.245-.3.318-.3.073 0 .132.135.132.3 0 .165-.143.3-.317.3-.175 0-.235-.135-.133-.3zm1.05-1.65c0-.248.135-.45.3-.45.165 0 .3.202.3.45 0 .247-.135.45-.3.45-.165 0-.3-.203-.3-.45zm1.5-.3c0-.248.135-.45.3-.45.165 0 .3.202.3.45 0 .247-.135.45-.3.45-.165 0-.3-.203-.3-.45zm1.35.15c-.105-.171.153-.3.6-.3.448 0 .706.129.6.3-.102.165-.372.3-.6.3-.228 0-.498-.135-.6-.3zm10.518-.572c-.11-.178-.067-.561.096-.851.28-.5.307-.5.506.018.242.627-.282 1.352-.602.833zm-12.211-1.511c.388-.338.839-.532 1-.432.386.238-.02.597-.957.847l-.75.2.707-.615zm7.653.183c.105-.302.19-.741.19-.975 0-.234.135-.425.3-.425.446 0 .347.668-.2 1.35-.422.527-.457.533-.29.05zm-2.21-.176c0-.151-.075-.471-.167-.71-.104-.272.065-.496.45-.597.782-.204 1.038.197.62.976-.33.619-.903.829-.903.331zm-3.15-.324c-.102-.165-.042-.3.133-.3.174 0 .317.135.317.3 0 .165-.06.3-.132.3-.073 0-.216-.135-.318-.3zm1.65-.3c0-.165.21-.3.468-.3.257 0 .384.135.282.3-.102.165-.312.3-.467.3-.156 0-.283-.135-.283-.3zm15-.418c0-.077.212-.352.472-.611.519-.519 1.173-.647.88-.173-.208.336-1.352.999-1.352.784zm-16.125-.703c-.588-.203-.442-.552.39-.931 1.024-.467 1.652-.44 1.46.06-.195.506-1.342 1.046-1.85.871zm9.943-.551c-.11-.437-.047-.92.144-1.11.251-.251.338-.052.338.772 0 1.292-.206 1.437-.482.338zm-6.707-.483c-.632-.588-.524-1.445.182-1.445.342 0 .36.127.093.626-.288.538-.257.612.214.524.303-.057.684-.407.846-.777.299-.679 1.172-.91 1.49-.396.095.153.02.612-.167 1.021-.443.972-1.842 1.207-2.658.447zm4.194.43c.002-.124.135-.428.295-.675.235-.364.292-.321.296.225.002.37-.13.675-.296.675-.165 0-.298-.102-.295-.225zm12.538-.233c-.224-.224.078-1.62.393-1.815.145-.09.264.318.264.905 0 .973-.249 1.318-.657.91zm-17.943-2.242c0-.165.28-.58.62-.92.47-.47.717-.54 1.021-.288.298.247.44.233.556-.055.113-.28.162-.262.178.063.012.247-.394.686-.9.975-1.047.595-1.475.66-1.475.225zm5.288-.441c.103-.267.315-.442.472-.39.45.15.32.67-.193.777-.32.067-.407-.053-.279-.387zm14.242-.534c.467-.898.418-.865.972-.653.674.26.092 1.328-.723 1.328-.526 0-.557-.083-.249-.675zm-15.21-1.303c.12-.316-.014-.53-.398-.63-.737-.193-.51-.81.459-1.252 1.053-.48 1.32-.427 1.32.26 0 .33-.133.6-.295.6-.162 0-.379.337-.482.75-.104.412-.324.75-.488.75-.165 0-.217-.215-.117-.478zm3.78-2.372c0-.248.131-.45.29-.45.16 0 .214.202.119.45-.095.247-.226.45-.29.45-.066 0-.119-.203-.119-.45zm3.15-.575c-.573-.46-1.02-.623-1.23-.45-.21.174-.533.047-.895-.354-.556-.614-.556-.634.012-1.049.77-.563 1.363-.535 1.363.064 0 .383.09.413.42.14.23-.192.35-.614.264-.938-.115-.442-.002-.588.456-.588.731 0 .984.547.598 1.296-.18.35-.166.878.04 1.47.177.507.322.97.322 1.028 0 .28-.535.034-1.35-.619zm4.208-1.989c.271-.438-.419-1.186-1.094-1.186-.88 0-.714-1.098.2-1.327.977-.245 1.336-.014 1.336.862 0 .385.2.777.445.871.616.236.229 1.094-.494 1.094-.33 0-.502-.137-.393-.314zm10.906-7.846c.134-.363.421-.719.638-.791.267-.09.33.035.196.384-.109.284-.198.64-.198.791 0 .152-.198.276-.44.276-.328 0-.378-.17-.196-.66zm8.618-1.315c-.264-.688-.242-.725.418-.725.4 0 .6.2.6.6 0 .711-.757.805-1.018.125zm1.918.157c0-.175.135-.234.3-.132.165.102.3.244.3.317 0 .073-.135.133-.3.133-.165 0-.3-.143-.3-.318zm2.145-1.459c-1.023-1.579-1.165-2.123-.551-2.123.495 0 1.619 1.497 1.867 2.487.332 1.322-.345 1.135-1.316-.364zm-11.745.127c0-.413.12-.75.268-.75.35 0 .682.876.466 1.227-.327.528-.734.264-.734-.477zm-9.093-3.044c-.114-.114-.207-.531-.207-.928 0-.527.143-.695.525-.621.327.062.525.374.525.822 0 .721-.456 1.114-.843.727zm-.807-2.674c0-.257.135-.384.3-.282.165.102.3.312.3.467 0 .155-.135.283-.3.283-.165 0-.3-.21-.3-.468zm-1.659-.148c-.285-.46.105-.758.49-.373.216.215.221.383.016.51-.168.103-.396.042-.506-.137zm-1.74-.784c-.366-.366-.207-1 .25-1 .25 0 .45.266.45.6 0 .597-.32.78-.7.4z" fill="#cd5231"/><path d="M44.116 73.481l-.816-.123 1.066-1.066c.594-.593 1.179-.95 1.32-.805.42.43.693 1.91.353 1.91-.169 0-.487.046-.707.103-.22.057-.767.048-1.216-.019zm-1.809-2.533c-.965-.353-1.092-.851-.215-.851.613 0 .787-.247.951-1.35.064-.428-.084-.604-.511-.612-.922-.017-1.35-.402-1.35-1.216 0-.408-.202-.819-.45-.914-.247-.095-.45-.445-.45-.778 0-.52-.134-.579-.955-.414-.525.105-1.177.392-1.449.637-.642.581-1.086.566-1.32-.046-.12-.311.04-.652.437-.93.344-.24.748-.762.899-1.158.15-.396.473-.72.717-.72s.77-.303 1.168-.674a42.963 42.963 0 0 1 1.963-1.667c.682-.546 1.24-1.086 1.24-1.2 0-.115-1.046-.174-2.325-.132-3.13.104-3.629-.031-3.456-.937.076-.395-.01-.81-.19-.922-.48-.296-.401-1.234.14-1.683.285-.236.405-.648.306-1.043-.119-.474.088-.876.756-1.472.506-.45.986-.753 1.067-.672.156.156-.65 1.874-1.203 2.565-.182.228-.36.87-.396 1.427-.059.922-.011.985.524.698.325-.173.714-.239.865-.145.152.094.28-.069.285-.361.024-1.363.403-2.433.808-2.278.508.195.544-.312.076-1.06-.262-.42-.244-.863.075-1.872.394-1.243.487-1.325 1.583-1.386.64-.035 1.394-.272 1.675-.526.46-.417.605-.416 1.46.01 1.024.511 1.133.728.62 1.24-.405.405-.07 1.59.448 1.59.208 0 .67-.311 1.029-.692.572-.61.606-.79.277-1.498-.206-.443-.576-.829-.824-.858-.247-.03-.652-.084-.9-.12a16.76 16.76 0 0 0-.813-.1c-.59-.051-2.896-2.497-3.426-3.633a21.336 21.336 0 0 1-.882-2.353c-.262-.866-.624-1.392-1.078-1.564-.376-.143-.768-.597-.872-1.009-.103-.411-.377-.905-.608-1.097-.231-.192-.42-.808-.42-1.37 0-.812.152-1.078.75-1.305.526-.2.75-.511.75-1.043 0-.875-.236-.961-.74-.272-.324.444-.432.445-1.271.01-.76-.392-1.29-1.029-1.29-1.549 0-.057.232-.335.515-.618.486-.487.453-.568-.6-1.479-.693-.599-1.12-1.235-1.126-1.681-.008-.47-.337-.926-.954-1.318-1.155-.736-1.41-1.35-.56-1.35.356 0 .625-.194.625-.45a.45.45 0 0 0-.445-.45c-.246 0-.812-.574-1.258-1.275-.447-.702-1.15-1.647-1.56-2.1-.584-.644-.643-.825-.27-.825.821 0 2.933 1.565 2.933 2.174 0 .622.667 1.426 1.183 1.426.179 0 .627.156.996.346.37.19.874.446 1.121.567.466.227.488.538.126 1.746-.186.617-.133.683.405.512.34-.108.709-.05.82.129.11.178.435.25.722.158.74-.235 1.473 1.134.947 1.768-.204.246-.284.588-.178.76.383.62.758.295.763-.661.006-1.365.41-1.952 1.004-1.46.25.208.513.672.582 1.031.127.65.128.65.168-.021.023-.372.222-.675.444-.675.277 0 .409.442.424 1.416.011.779.168 1.465.347 1.525.496.165.39.807-.222 1.362-.821.743-1.008.613-.9-.628.082-.957.007-1.125-.503-1.125-.475 0-.618.231-.692 1.125-.078.946 0 1.125.49 1.125.322 0 .813.348 1.092.775.487.742.533.753 1.085.253.317-.287.576-.705.576-.929 0-.224.12-.642.265-.929.145-.286.423-1.195.617-2.02.407-1.729.765-2.224 1.253-1.736.246.246.206.592-.15 1.306-.267.535-.485 1.33-.485 1.768 0 .438-.198 1.059-.44 1.38-.586.774-.573 1.332.032 1.332.27 0 .642.199.825.442.384.51 2.583.863 2.583.415 0-.163-.146-.57-.324-.903-.178-.333-.25-.681-.157-.773.265-.265 1.08.542 1.09 1.08.018.874.793 1.61 1.47 1.396.666-.212.875-1.357.246-1.358-.234 0-.373-.423-.371-1.125.001-.618.1-1.124.219-1.124.31 0 1.427 2.278 1.427 2.913 0 .397.236.537.91.537 1.016 0 1.46-.663.9-1.34-.22-.265-.27-.699-.129-1.121.127-.38.194-1.008.15-1.398-.057-.486.044-.663.318-.563.22.08.361.318.312.527-.05.21.048.776.217 1.258.221.636.191 1.368-.11 2.656-.227.978-.3 1.849-.162 1.934.307.19.412.018.878-1.428.2-.62.543-1.125.763-1.125.284 0 .386-.411.352-1.415-.039-1.129.057-1.436.475-1.522.376-.077.472.028.341.37-.198.517.411 2.267.79 2.267.368 0 .599-.863.282-1.059-.54-.334-.286-.741.463-.741.554 0 .75.159.75.609 0 .335.203.687.45.782.29.111.45.576.45 1.309 0 1.342.242 1.475 2.328 1.274 1.623-.156 2.02-.492.972-.824-.895-.285-.751-.642.944-2.348.849-.854 1.374-1.318 1.166-1.031-.207.286-.29.746-.185 1.022.176.456.24.45.728-.071.294-.315 1.034-.84 1.644-1.168.92-.492 1.212-.531 1.703-.225.326.204.808.37 1.072.37 1.136 0 12.128 8.812 12.128 9.722 0 .136.65 1.008 1.445 1.938 3.561 4.168 6.045 9.24 6.665 13.609.347 2.447.022 4.218-1.101 5.997-.431.683-.784 1.572-.784 1.975 0 1.227-.99 1.932-2.737 1.952-.846.01-2.145-.122-2.888-.29l-1.35-.308 1.2-.23c1.81-.349 2.417-.869 3.427-2.932 1.924-3.93 1.892-7.048-.129-12.279-1.36-3.524-2.707-5.773-5.091-8.507-1.076-1.234-1.957-2.394-1.957-2.577 0-.184-.891-1.191-1.981-2.239-1.883-1.81-2.924-2.395-4.619-2.593-1.188-.139-1.106.493.09.688 1.841.299 3.15 1.424 3.487 2.997.336 1.567.225 2.226-.728 4.328-.374.825-.772 1.929-.884 2.454-.112.525-.397 1.115-.634 1.312-.237.196-.43.605-.43.908 0 .502-2.027 3.197-4.553 6.054-.549.621-1.751 1.603-2.672 2.183-.92.58-1.958 1.438-2.306 1.909-.348.47-1.004.948-1.458 1.062-.454.114-1.17.45-1.593.746-1.475 1.033-3.373 1.417-6.227 1.258-1.049-.058-2.214-1.287-2.748-2.898-.656-1.98-1.36-2.009-1.485-.062-.086 1.333-.138 1.415-.8 1.249-.39-.098-1.446-.025-2.347.162l-1.637.34-.208 2.386c-.126 1.453-.34 2.387-.547 2.387-.241 0-.235.104.02.36.745.744.302 3.24-.575 3.24-.31 0-.565.135-.565.3 0 .37-.783.35-1.875-.05zm.5-4.644c.104-.272.125-.558.045-.637-.279-.28-1.07.216-1.07.67 0 .614.787.589 1.025-.033zm-.686-.932c.02-.124.069-.51.107-.86.038-.348.157-.778.266-.954.459-.741-.53-.66-1.334.11-.819.784-.842.87-.379 1.382.5.552 1.269.736 1.34.322zm2.661-3.675c-.238-.148-.5-.2-.582-.118-.083.083.044.27.282.418.238.147.5.2.583.117.082-.083-.045-.27-.283-.417zm.709-1.65c-.1-.262-.003-.455.234-.461.465-.013 2.256-1.4 2.046-1.584-.478-.418-1.76-.45-2.091-.053-.42.506-1.198.602-1.198.148a.3.3 0 0 1 .3-.3c.471 0 .34-.68-.286-1.496-.72-.938-.927-.732-.96.953-.036 1.769.201 2.429 1.019 2.833.963.477 1.132.47.936-.04zm-3.409-5.25c0-.165-.143-.3-.317-.3-.175 0-.235.135-.133.3.102.165.245.3.318.3.073 0 .132-.135.132-.3zm.89-2.38c.17-.32.31-.802.31-1.073 0-.827-.923-.368-1.362.678-.379.903-.366.975.166.975.316 0 .715-.262.886-.58zm13.99-.675c.934-.838 1.811-3.634 1.455-4.64-.156-.443-.45-.861-.653-.929-.58-.192-1.807 1.344-1.925 2.408-.18 1.631.037 2.682.516 2.499.24-.093.427.013.427.244 0 .461-.812.862-1.227.606-.15-.093-.273.037-.273.29 0 .558.77.339 1.68-.478zm-.519-11.148c.396-.478.151-.797-.61-.797-.538 0-.749.601-.35 1 .302.303.59.242.96-.203zm2.712-1.767c.299.107.365 0 .225-.364-.109-.284-.198-.623-.198-.754 0-.237-1.605-.658-2.025-.53-.122.037-.24.44-.263.897-.051 1.01.725 1.562 1.388.988.248-.214.64-.32.873-.237zm-21.573-7.72c0-.16-.27-.434-.6-.61-.33-.177-.6-.52-.6-.761 0-.242-.135-.44-.3-.44-.504 0-.335.674.353 1.406.685.73 1.147.893 1.147.405zm-2.7-3.443c0-.073-.135-.215-.3-.317-.165-.102-.3-.043-.3.132s.135.318.3.318c.165 0 .3-.06.3-.133zm3.9 42.628c0-.283 1.164-1.395 1.46-1.395.515 0 .407.633-.185 1.082-.481.366-1.275.56-1.275.313zm41.1-1.363c0-.148.17-.33.375-.406.528-.194 1.163.07.96.4-.219.353-1.335.358-1.335.006zm9.9-.332a.3.3 0 0 1 .3-.3.3.3 0 0 1 .3.3.3.3 0 0 1-.3.3.3.3 0 0 1-.3-.3zm-55.2-7.483c0-.155.135-.365.3-.467.165-.102.3.025.3.282 0 .257-.135.468-.3.468-.165 0-.3-.128-.3-.283zm.9-2.885c0-.257.135-.384.3-.282.165.102.3.312.3.467 0 .155-.135.283-.3.283-.165 0-.3-.21-.3-.468zm-22.05-.432c.102-.165.245-.3.318-.3.073 0 .132.135.132.3 0 .165-.143.3-.317.3-.175 0-.235-.135-.133-.3zm1.05-1.65c0-.248.135-.45.3-.45.165 0 .3.202.3.45 0 .247-.135.45-.3.45-.165 0-.3-.203-.3-.45zm1.5-.3c0-.248.135-.45.3-.45.165 0 .3.202.3.45 0 .247-.135.45-.3.45-.165 0-.3-.203-.3-.45zm1.35.15c-.105-.171.153-.3.6-.3.448 0 .706.129.6.3-.102.165-.372.3-.6.3-.228 0-.498-.135-.6-.3zm10.518-.572c-.11-.178-.067-.561.096-.851.28-.5.307-.5.506.018.242.627-.282 1.352-.602.833zm-12.211-1.511c.388-.338.839-.532 1-.432.386.238-.02.597-.957.847l-.75.2.707-.615zm7.653.183c.105-.302.19-.741.19-.975 0-.234.135-.425.3-.425.446 0 .347.668-.2 1.35-.422.527-.457.533-.29.05zm-2.21-.176c0-.151-.075-.471-.167-.71-.104-.272.065-.496.45-.597.782-.204 1.038.197.62.976-.33.619-.903.829-.903.331zm-3.15-.324c-.102-.165-.042-.3.133-.3.174 0 .317.135.317.3 0 .165-.06.3-.132.3-.073 0-.216-.135-.318-.3zm1.65-.3c0-.165.21-.3.468-.3.257 0 .384.135.282.3-.102.165-.312.3-.467.3-.156 0-.283-.135-.283-.3zm15-.418c0-.077.212-.352.472-.611.519-.519 1.173-.647.88-.173-.208.336-1.352.999-1.352.784zm-16.125-.703c-.588-.203-.442-.552.39-.931 1.024-.467 1.652-.44 1.46.06-.195.506-1.342 1.046-1.85.871zm9.943-.551c-.11-.437-.047-.92.144-1.11.251-.251.338-.052.338.772 0 1.292-.206 1.437-.482.338zm-6.707-.483c-.632-.588-.524-1.445.182-1.445.342 0 .36.127.093.626-.288.538-.257.612.214.524.303-.057.684-.407.846-.777.299-.679 1.172-.91 1.49-.396.095.153.02.612-.167 1.021-.443.972-1.842 1.207-2.658.447zm4.194.43c.002-.124.135-.428.295-.675.235-.364.292-.321.296.225.002.37-.13.675-.296.675-.165 0-.298-.102-.295-.225zm12.538-.233c-.224-.224.078-1.62.393-1.815.145-.09.264.318.264.905 0 .973-.249 1.318-.657.91zm-17.943-2.242c0-.165.28-.58.62-.92.47-.47.717-.54 1.021-.288.298.247.44.233.556-.055.113-.28.162-.262.178.063.012.247-.394.686-.9.975-1.047.595-1.475.66-1.475.225zm5.288-.441c.103-.267.315-.442.472-.39.45.15.32.67-.193.777-.32.067-.407-.053-.279-.387zm14.242-.534c.467-.898.418-.865.972-.653.674.26.092 1.328-.723 1.328-.526 0-.557-.083-.249-.675zm-15.21-1.303c.12-.316-.014-.53-.398-.63-.737-.193-.51-.81.459-1.252 1.053-.48 1.32-.427 1.32.26 0 .33-.133.6-.295.6-.162 0-.379.337-.482.75-.104.412-.324.75-.488.75-.165 0-.217-.215-.117-.478zm3.78-2.372c0-.248.131-.45.29-.45.16 0 .214.202.119.45-.095.247-.226.45-.29.45-.066 0-.119-.203-.119-.45zm3.15-.575c-.573-.46-1.02-.623-1.23-.45-.21.174-.533.047-.895-.354-.556-.614-.556-.634.012-1.049.77-.563 1.363-.535 1.363.064 0 .383.09.413.42.14.23-.192.35-.614.264-.938-.115-.442-.002-.588.456-.588.731 0 .984.547.598 1.296-.18.35-.166.878.04 1.47.177.507.322.97.322 1.028 0 .28-.535.034-1.35-.619zm4.208-1.989c.271-.438-.419-1.186-1.094-1.186-.88 0-.714-1.098.2-1.327.977-.245 1.336-.014 1.336.862 0 .385.2.777.445.871.616.236.229 1.094-.494 1.094-.33 0-.502-.137-.393-.314zm10.906-7.846c.134-.363.421-.719.638-.791.267-.09.33.035.196.384-.109.284-.198.64-.198.791 0 .152-.198.276-.44.276-.328 0-.378-.17-.196-.66zm8.618-1.315c-.264-.688-.242-.725.418-.725.4 0 .6.2.6.6 0 .711-.757.805-1.018.125zm1.918.157c0-.175.135-.234.3-.132.165.102.3.244.3.317 0 .073-.135.133-.3.133-.165 0-.3-.143-.3-.318zm2.145-1.459c-1.023-1.579-1.165-2.123-.551-2.123.495 0 1.619 1.497 1.867 2.487.332 1.322-.345 1.135-1.316-.364zm-11.745.127c0-.413.12-.75.268-.75.35 0 .682.876.466 1.227-.327.528-.734.264-.734-.477zm-9.093-3.044c-.114-.114-.207-.531-.207-.928 0-.527.143-.695.525-.621.327.062.525.374.525.822 0 .721-.456 1.114-.843.727zm-.807-2.674c0-.257.135-.384.3-.282.165.102.3.312.3.467 0 .155-.135.283-.3.283-.165 0-.3-.21-.3-.468zm-1.659-.148c-.285-.46.105-.758.49-.373.216.215.221.383.016.51-.168.103-.396.042-.506-.137zm-1.74-.784c-.366-.366-.207-1 .25-1 .25 0 .45.266.45.6 0 .597-.32.78-.7.4z" fill="#769734"/><path d="M56.971 45.644c-.033.016-.044.06-.078.076-.05.024-.346-.024-.396 0-.067.032-.092.12-.158.152-.048.023-.111-.022-.159 0-.066.032-.093.12-.16.153-.047.022-.12-.036-.158 0-.019.018.012.053 0 .076-.165.317.006-.082-.158.076-.019.018.019.058 0 .076-.164.158.007-.24-.158.076-.012.023.018.059 0 .076-.038.036-.121-.035-.159 0-.163.158.25-.006-.08.153-.047.023-.11-.023-.158 0-.095.046-.141.183-.236.228-.024.012-.062-.018-.08 0-.019.018.018.059 0 .077-.019.017-.062-.018-.08 0-.019.017.018.06 0 .078-.019.018-.06-.018-.078 0-.164.157.25-.007-.08.152-.048.023-.111-.023-.159 0-.095.046-.141.183-.236.229-.024.01-.061-.018-.08 0-.019.017.019.058 0 .076-.164.157.007-.241-.158.076-.012.023.018.058 0 .076-.164.158.006-.241-.159.076-.011.023.02.058 0 .076-.163.158.007-.24-.158.077-.054.105.095.068-.08.152-.023.011-.061-.018-.08 0-.037.036.037.116 0 .152-.019.018-.06-.018-.078 0-.019.018.012.054 0 .076-.084.163-.074-.01-.158.153-.012.022.018.058 0 .076-.019.018-.062-.018-.08 0-.038.036.037.116 0 .152-.019.018-.06-.018-.078 0-.02.018.011.054 0 .076-.043.082-.118.072-.16.153-.024.045.037.116 0 .152-.02.018-.06-.018-.079 0-.018.018.012.054 0 .076-.016.032-.063.044-.08.076-.116.225.185-.1-.078.153-.012.023.012.053 0 .076-.033.064-.125.088-.158.152-.012.023.008.052 0 .076-.191.553.023-.118-.158.23-.024.046.023.108 0 .153-.017.032-.069.042-.08.076-.017.049 0 .102 0 .153l-.08.152c-.017.048.023.107 0 .152-.034.065-.125.089-.159.153-.031.06.032.167 0 .228-.016.032-.061.044-.078.077-.012.022.012.053 0 .076-.017.032-.063.044-.08.076-.025.048.025.257 0 .305-.017.032-.061.044-.078.076-.024.045.024.107 0 .152-.017.032-.063.044-.08.076-.01.02 0 .265 0 .305v2.516c0 .028-.003.301 0 .304.019.018.061-.018.08 0 .003.003 0 .277 0 .305v1.221c0 .025.019.058 0 .076-.019.018-.061-.018-.08 0-.003.003 0 .276 0 .304v.524c.005.01.015.027.008.016l.004.01c.006.01.014.018.02.029a.092.092 0 0 1 .005.017l.016.014.006.012c.002.007.002.015.003.023l.026.025.008.041c.011.003.008 0 .015.006.032.026.027.062.028.096l-.002.033c-.003.026-.003.003-.014-.004l.008.014.006.006v.002c.023.04.03.046.027.084l-.002.037.014.049c0 .002 0 .007-.002.006l.02.039-.005.023h.002c.033.029.024.068.026.104 0 .016.003.061-.004.076v.002l.011.016c.013.02.021.044.02.068 0 .03.002.058-.002.088v.01c-.017-.03.014.022.01.027.004.013.01.026.013.039l.014.025c.003.005.003.011.006.016l.002.002.006.016c.008.01.018.022.025.033v.006c.004.008.01.017.012.025 0 0-.024-.036.004.004l.014.049c0 .002 0 .007-.002.006l.017.04a.26.26 0 0 1-.004.042c.007.01.013.021.018.033a.221.221 0 0 1-.004.06v.003l.012.017v.004c.015.05-.004-.037.015.057-.005.003 0 0-.01-.012l.012.018c.009.017.02.036.028.054.004.01-.003.053 0 .067v.236c.028.006.06.029.066.088.002.018 0 .037 0 .055l.016.015c.024.038.009.078.01.117.005 0 .003.009.005.014.001.003 0 .005.002.008a.027.027 0 0 1 .008.01c.011.016.004.034.004.05l.014.01c.004.005.006.012.01.018.01.049.012.034.007.066l.012.012c.01.013.015.058.016.066l.006.006c.016.015.031.095.003.035-.024-.016-.01-.008.024.024.01.009.013.022.015.035.002.008-.008-.013-.013-.02a.042.042 0 0 0-.01-.007c.02.018.025.032.033.047l.002.002c.004.007.013.009.016.021.002.007-.005-.01-.01-.018l.016.014c-.017-.014-.007-.006.02.03a.095.095 0 0 1-.01-.012.09.09 0 0 1 .025.076l.013.025c.002.004-.007-.015-.007-.01l.011.024c.01.013.009.016.006.012h.002v.002c-.007-.013-.005-.01.016.021l.014.049c0 .002 0 .007-.002.006l.017.043c0 .011 0 .018-.002.03.029.007.055.034.055.09 0 .035-.005.032.004.056l.025.021c0 .048-.002.034-.004.047l.002.002c.022.027.022.053.022.082.027.026.038.06.031.102l-.002.011c-.003-.052.012.006.014.012.004.02.002.044.004.021.016.035.01.07.01.106v.006c.004-.002.003.01.005.015.011.03.01.026.012.057a.293.293 0 0 0-.004.06c.005.01.013.02.014.022.003.011.002.022.002.033v.006c.007.016.017.038.013.045-.004.008-.006-.018-.005-.027 0-.004.004.006.005.01l.012.03.002.028v.002c.003.006.008.011.01.018.003.01.003.022.004.033l.01.021c.005.02.003.034.002.053 0 .003.003.006.004.008.003.008.006.015.007.023.005.023.002.03 0 .051-.003 0-.001.032-.002.04.009.02.019.04.016.066l-.002.013v.002c.005.014.017.026.018.041 0 .009-.005-.017-.004-.025 0-.003.002.007.004.01l.01.03c-.002-.01-.001.006 0 .015-.004-.003-.014-.012.007.002.027.037.025.06.02.101a.131.131 0 0 1 .025.11v.004l.004.005a.06.06 0 0 1 .016.022c.013.032.008.06.005.094v.002c.005-.003.004.01.006.013.001.002.005.003.006.004.005.008.008.018.012.026.009.02.004.038.002.058l.006.008c.015.013.021.04.025.057.002.008-.01-.016-.007-.024 0-.005.006.01.01.014.013.028.007.058.005.088.006.009.012.017.016.027v.01l.004.008c.001.003 0 .006.002.01.095-.004.103.061.058.1.021.025.026.049.022.07.015.008.036.011.047.025.009.011.006.023.007.035.038-.007.067.016.065.057.024.016.046.032.047.05.021.007.042.011.064.036.008.018.02.033.022.052 0 .006-.006.006-.006.01h.006c.068 0 .098.036.095.07.025-.01.048-.025.073-.035.024-.01.061.018.08 0 .037-.036-.038-.116 0-.152.037-.036.12.036.158 0 .037-.036-.024-.107 0-.152.165-.318-.006.081.158-.077.053-.05-.052-.101 0-.152.019-.018.057.011.08 0 .034-.016.052-.05.078-.076.027-.025.064-.044.08-.076.012-.023-.011-.054 0-.076.034-.065.125-.088.159-.153.011-.023-.012-.053 0-.076.033-.064.124-.088.158-.152.012-.023-.012-.056 0-.078.165-.318-.006.081.158-.077.037-.036-.024-.106 0-.152.033-.064.125-.088.158-.152.012-.023-.012-.054 0-.076.021-.041.14-.112.16-.153.043-.08-.042-.071 0-.152.034-.064.125-.088.159-.152.011-.023-.012-.054 0-.077.016-.032.061-.044.078-.076.012-.023-.012-.053 0-.076.016-.032.063-.044.08-.076.116-.224-.185.1.078-.152.033-.048.054-.102.08-.153 0-.025-.012-.053 0-.076.017-.032.063-.044.08-.076.012-.023-.008-.052 0-.076.019-.054.06-.099.078-.153.009-.024-.012-.053 0-.076.034-.064.125-.088.158-.152.012-.023-.011-.054 0-.076.043-.082.116-.071.159-.153.023-.045-.038-.116 0-.152.164-.158-.007.241.158-.076.042-.081-.042-.071 0-.153.165-.317-.004.08.16-.078.037-.036-.024-.107 0-.152.033-.064.125-.088.158-.152.012-.023-.012-.054 0-.077.034-.064.125-.088.158-.152.012-.023-.011-.053 0-.076.073-.14.166-.012.239-.152.023-.046-.024-.107 0-.153.165-.317-.006.082.158-.076.019-.018 0-.05 0-.076v-.076c.164-.158-.007.24.158-.076.024-.046-.023-.107 0-.153.017-.032.052-.05.078-.076.027-.025.047-.06.08-.076.024-.011.055.011.078 0 .176-.084.026-.047.08-.152.048-.092.191-.138.239-.229.012-.023-.019-.058 0-.076.019-.018.06.018.078 0 .019-.018-.012-.054 0-.076.017-.032.063-.044.08-.076.012-.023-.012-.054 0-.077.033-.064.125-.088.158-.152.012-.023-.012-.053 0-.076.017-.032.064-.044.08-.076.012-.023-.011-.054 0-.077.017-.032.062-.044.078-.076.012-.022-.011-.055 0-.078.036-.067.19-.159.239-.228.032-.048.036-.113.078-.153.042-.04.116-.036.158-.076.042-.04.045-.107.08-.152.045-.058.12-.09.158-.153.043-.068.03-.164.08-.228.036-.045.132-.025.159-.076.035-.068-.03-.158 0-.229.027-.066.12-.09.158-.152.043-.069.03-.164.08-.229.313-.402.069.615.316-.457.023-.099-.025-.206 0-.304.029-.11.121-.197.159-.305.042-.123.037-.26.08-.383.037-.108.13-.194.158-.304.025-.1 0-.204 0-.305v-2.592c0-.05.013-.103 0-.152-.015-.055-.066-.098-.08-.153-.013-.049 0-.101 0-.152v-.686c0-.034.012-.205 0-.228-.017-.032-.067-.042-.078-.076-.017-.048 0-.102 0-.153-.027-.025-.064-.044-.08-.076-.018-.034.012-.27 0-.304-.018-.052-.209-.17-.239-.229-.042-.081.043-.073 0-.154-.033-.065-.125-.088-.158-.153-.012-.022.012-.053 0-.076-.033-.064-.125-.088-.158-.152-.055-.105.095-.068-.08-.152-.024-.012-.06.018-.078 0-.02-.018.011-.054 0-.077a6.126 6.126 0 0 0-.317-.304c-.023-.012-.056.011-.08 0-.067-.032-.091-.12-.158-.153-.024-.011-.057.012-.08 0-.067-.032-.092-.12-.158-.152-.024-.011-.052 0-.078 0h-1.11c-.026 0-.056-.011-.08 0z" fill="#fff" fill-rule="evenodd"/><path d="M52.102 58.491c-.003 0-.002-.007-.004-.01l-.004-.003.008.013zm-.347-1.221l.017.016a.028.028 0 0 0-.006-.01c-.003-.002-.014-.008-.011-.005zm.461 2.292l.005.008c-.006-.005-.003-.012-.007-.016l.002.008zm-.27-1.133v.006a.13.13 0 0 0 .002.004v-.006l-.002-.004zm-.004.494l.006.014h.002c-.009-.015-.003-.008-.008-.014zm.297.252v.012l.002-.008-.002-.004zm.071.273c-.004-.007-.01-.008-.02.008l.023.022c0-.01 0-.022-.004-.03zm.238.657v.002l.027.021-.025-.023h-.002zm.06.162c.011.005.012.013.02.02v-.005c0-.007-.027-.018-.02-.015zm.639 2.166c.002.002.014.008.015.01v.002h.002v-.002l.02-.01h-.037z" fill="#fff" fill-rule="evenodd"/><path d="M84.982 68.89c0-.183.322-.763.716-1.288 2.062-2.752 2.7-5.343 2.49-10.105-.084-1.898-.241-3.923-.35-4.5l-.197-1.05.614.75c.338.412.617.982.62 1.266.004.283.344 1.251.755 2.15 1.584 3.462 1.515 7.46-.163 9.548-.736.915-.85 1.241-.597 1.713.643 1.2.303 1.452-2.294 1.698-1.06.1-1.594.04-1.594-.182zm4.8-.293a.3.3 0 0 1 .3-.3.3.3 0 0 1 .3.3.3.3 0 0 1-.3.3.3.3 0 0 1-.3-.3zm-35.543-5.57c-1.638-.854-1.739-1.536-.432-2.904.76-.794.906-1.167.819-2.08-.085-.893.006-1.142.464-1.262.39-.102.509-.309.376-.656-.12-.313.09-.88.548-1.48.408-.536.657-1.06.552-1.165-.104-.104.144-.56.553-1.012.915-1.013 1.364-1.979 1.609-3.465.191-1.16-.284-3.206-.744-3.206-.644 0-1.237.437-1.77 1.304-.513.834-.75 1.673-1.434 5.07-.2 1-.581 1.04-1.52.158l-.71-.668.213 4.314c.241 4.876-.1 5.453-.953 1.616-.91-4.09-.178-8.983 1.656-11.072.591-.673.88-1.267.775-1.597-.262-.824 1.019-2.417 3.07-3.82 2.522-1.724 4.235-2.214 6.496-1.86.965.151 1.814.216 1.886.144.072-.072-.047-.427-.265-.789-.354-.588-.318-.71.343-1.154a8.222 8.222 0 0 0 1.331-1.174c1.56-1.784 3.3-1.932 4.896-.416.459.436 1.16.793 1.557.793s.782.178.856.394c.1.296-.225.37-1.323.3-1.915-.123-2.02.617-.164 1.154 2.377.688 3.266 1.444 3.495 2.971.247 1.642.053 2.626-.908 4.618-.4.83-.729 1.707-.729 1.946 0 1.184-3.012 5.66-5.63 8.365-.45.465-1.562 1.364-2.47 1.997-.907.632-2.009 1.567-2.448 2.078-.438.51-1.062.928-1.384.928-.323 0-.934.272-1.358.606-1.819 1.43-5.481 1.948-7.253 1.024zm-4.5-4.02c-.307-.497.76-1.615 1.16-1.214.213.214.115.505-.317.937-.44.44-.691.523-.843.278z" fill="#3f372d"/></svg>