<?xml version="1.0" encoding="UTF-8" standalone="no"?>
<svg
   xmlns:dc="http://purl.org/dc/elements/1.1/"
   xmlns:cc="http://creativecommons.org/ns#"
   xmlns:rdf="http://www.w3.org/1999/02/22-rdf-syntax-ns#"
   xmlns:svg="http://www.w3.org/2000/svg"
   xmlns="http://www.w3.org/2000/svg"
   xmlns:sodipodi="http://sodipodi.sourceforge.net/DTD/sodipodi-0.dtd"
   xmlns:inkscape="http://www.inkscape.org/namespaces/inkscape"
   viewBox="0 0 100 100"
   height="100%"
   width="100%"
   xml:space="preserve"
   version="1.1"
   id="svg4636"
   inkscape:version="0.91 r13725"
   sodipodi:docname="poison-berry.svg"><sodipodi:namedview
     pagecolor="#ffffff"
     bordercolor="#666666"
     borderopacity="1"
     objecttolerance="10"
     gridtolerance="10"
     guidetolerance="10"
     inkscape:pageopacity="0"
     inkscape:pageshadow="2"
     inkscape:window-width="1920"
     inkscape:window-height="1001"
     id="namedview278"
     showgrid="false"
     inkscape:zoom="3.6875145"
     inkscape:cx="40.382652"
     inkscape:cy="46.297311"
     inkscape:window-x="1920"
     inkscape:window-y="24"
     inkscape:window-maximized="1"
     inkscape:current-layer="svg4636" /><metadata
     id="metadata4642"><rdf:RDF><cc:Work
         rdf:about=""><dc:format>image/svg+xml</dc:format><dc:type
           rdf:resource="http://purl.org/dc/dcmitype/StillImage" /><dc:title /></cc:Work></rdf:RDF></metadata><defs
     id="defs4640"><clipPath
       id="clipPath4662"
       clipPathUnits="userSpaceOnUse"><path
         id="path4664"
         d="m 121,114.598 100,0 0,-107 -100,0 0,107 z"
         inkscape:connector-curvature="0" /></clipPath><clipPath
       id="clipPath4668"
       clipPathUnits="userSpaceOnUse"><path
         id="path4670"
         d="m 170.008,114.505 c -26.973,-0.539 -48.707,-22.762 -48.68,-49.743 0.02,-15.589 7.242,-29.464 18.492,-38.558 l 0,-14.551 c 0,-1.914 1.555,-3.469 3.469,-3.469 l 6.934,0 c 1.914,0 3.468,1.555 3.468,3.469 l 0,6.836 c 0,1.867 1.434,3.473 3.297,3.563 1.992,0.093 3.637,-1.493 3.637,-3.465 l 0,-6.934 c 0,-1.914 1.551,-3.469 3.469,-3.469 1.914,0 3.465,1.555 3.465,3.469 l 0,6.836 c 0,1.867 1.437,3.473 3.3,3.563 1.993,0.093 3.637,-1.493 3.637,-3.465 l 0,-6.934 c 0,-1.914 1.551,-3.469 3.465,-3.469 1.914,0 3.469,1.555 3.469,3.469 l 0,6.836 c 0,1.867 1.433,3.473 3.3,3.563 1.989,0.093 3.633,-1.493 3.633,-3.465 l 0,-6.934 c 0,-1.914 1.555,-3.469 3.469,-3.469 l 6.934,0 c 1.914,0 3.468,1.555 3.468,3.469 l 0,14.551 c 11.262,9.105 18.493,23 18.493,38.613 -0.004,27.785 -22.805,50.246 -50.719,49.688 z M 149.066,47.481 c -7.66,0 -13.867,6.211 -13.867,13.871 0,7.657 6.207,13.867 13.867,13.867 7.661,0 13.872,-6.21 13.872,-13.867 0,-7.66 -6.211,-13.871 -13.872,-13.871 z M 180.414,34.63 c -0.68,-0.68 -1.566,-1.016 -2.453,-1.016 -0.887,0 -1.773,0.336 -2.453,1.016 l -4.481,4.48 -4.484,-4.48 c -1.355,-1.356 -3.547,-1.356 -4.902,0 -1.356,1.351 -1.356,3.547 0,4.902 l 6.933,6.934 c 1.356,1.355 3.551,1.355 4.903,0 l 6.937,-6.934 c 1.352,-1.355 1.352,-3.551 0,-4.902 z m 12.57,12.851 c -7.656,0 -13.867,6.211 -13.867,13.871 0,7.657 6.211,13.867 13.867,13.867 7.661,0 13.871,-6.21 13.871,-13.867 0,-7.66 -6.21,-13.871 -13.871,-13.871 z"
         inkscape:connector-curvature="0" /></clipPath><clipPath
       id="clipPath4678"
       clipPathUnits="userSpaceOnUse"><path
         id="path4680"
         d="M 0,0 410,0 410,410 0,410 0,0 Z"
         inkscape:connector-curvature="0" /></clipPath><clipPath
       id="clipPath4690"
       clipPathUnits="userSpaceOnUse"><path
         id="path4692"
         d="m 123,20 101,0 0,95 -101,0 0,-95 z"
         inkscape:connector-curvature="0" /></clipPath><mask
       id="mask4694"
       height="1"
       width="1"
       y="0"
       x="0"
       maskUnits="userSpaceOnUse"><g
         id="g4696"><g
           id="g4698"
           clip-path="url(#clipPath4690)"><path
             id="path4700"
             style="fill:#000000;fill-opacity:0.07999998;fill-rule:nonzero;stroke:none"
             d="m 123,20 101,0 0,95 -101,0 0,-95 z"
             inkscape:connector-curvature="0" /></g></g></mask><clipPath
       id="clipPath4706"
       clipPathUnits="userSpaceOnUse"><path
         id="path4708"
         d="m 123,20 101,0 0,95 -101,0 0,-95 z"
         inkscape:connector-curvature="0" /></clipPath><clipPath
       id="clipPath4710"
       clipPathUnits="userSpaceOnUse"><path
         id="path4712"
         d="m 123,20 101,0 0,95 -101,0 0,-95 z"
         inkscape:connector-curvature="0" /></clipPath><clipPath
       id="clipPath4740"
       clipPathUnits="userSpaceOnUse"><path
         id="path4742"
         d="m 127,199.598 97,0 0,-106 -97,0 0,106 z"
         inkscape:connector-curvature="0" /></clipPath><clipPath
       id="clipPath4746"
       clipPathUnits="userSpaceOnUse"><path
         id="path4748"
         d="m 174.68,198.688 c -26.008,-0.535 -46.965,-22.48 -46.934,-49.121 0.016,-15.394 6.981,-29.094 17.828,-38.074 l 0,-14.367 c 0,-1.891 1.496,-3.426 3.344,-3.426 l 6.687,0 c 1.844,0 3.344,1.535 3.344,3.426 l 0,6.75 c 0,1.843 1.383,3.429 3.18,3.515 1.922,0.094 3.504,-1.472 3.504,-3.418 l 0,-6.847 c 0,-1.891 1.5,-3.426 3.344,-3.426 1.847,0 3.343,1.535 3.343,3.426 l 0,6.75 c 0,1.843 1.383,3.429 3.184,3.515 1.918,0.094 3.504,-1.472 3.504,-3.418 l 0,-6.847 c 0,-1.891 1.496,-3.426 3.344,-3.426 1.843,0 3.343,1.535 3.343,3.426 l 0,6.75 c 0,1.843 1.383,3.429 3.18,3.515 1.922,0.094 3.504,-1.472 3.504,-3.418 l 0,-6.847 c 0,-1.891 1.5,-3.426 3.344,-3.426 l 6.687,0 c 1.848,0 3.344,1.535 3.344,3.426 l 0,14.367 c 10.859,8.992 17.828,22.715 17.828,38.133 0,27.437 -21.988,49.613 -48.902,49.062 z m -20.188,-66.183 c -7.387,0 -13.375,6.132 -13.375,13.695 0,7.562 5.988,13.695 13.375,13.695 7.383,0 13.371,-6.133 13.371,-13.695 0,-7.563 -5.988,-13.695 -13.371,-13.695 z m 30.223,-12.692 c -0.653,-0.668 -1.508,-1.004 -2.363,-1.004 -0.856,0 -1.711,0.336 -2.368,1.004 l -4.32,4.426 -4.324,-4.426 c -1.305,-1.336 -3.422,-1.336 -4.727,0 -1.304,1.336 -1.304,3.504 0,4.84 l 6.688,6.848 c 1.304,1.34 3.422,1.34 4.726,0 l 6.688,-6.848 c 1.305,-1.336 1.305,-3.504 0,-4.84 z m 12.121,12.692 c -7.383,0 -13.371,6.132 -13.371,13.695 0,7.562 5.988,13.695 13.371,13.695 7.387,0 13.375,-6.133 13.375,-13.695 0,-7.563 -5.988,-13.695 -13.375,-13.695 z"
         inkscape:connector-curvature="0" /></clipPath><clipPath
       id="clipPath4756"
       clipPathUnits="userSpaceOnUse"><path
         id="path4758"
         d="M 0,0 410,0 410,410 0,410 0,0 Z"
         inkscape:connector-curvature="0" /></clipPath><clipPath
       id="clipPath4768"
       clipPathUnits="userSpaceOnUse"><path
         id="path4770"
         d="m 125,98 104,0 0,102 -104,0 0,-102 z"
         inkscape:connector-curvature="0" /></clipPath><mask
       id="mask4772"
       height="1"
       width="1"
       y="0"
       x="0"
       maskUnits="userSpaceOnUse"><g
         id="g4774"><g
           id="g4776"
           clip-path="url(#clipPath4768)"><path
             id="path4778"
             style="fill:#000000;fill-opacity:0.07999998;fill-rule:nonzero;stroke:none"
             d="m 125,98 104,0 0,102 -104,0 0,-102 z"
             inkscape:connector-curvature="0" /></g></g></mask><clipPath
       id="clipPath4784"
       clipPathUnits="userSpaceOnUse"><path
         id="path4786"
         d="m 125,98 104,0 0,102 -104,0 0,-102 z"
         inkscape:connector-curvature="0" /></clipPath><clipPath
       id="clipPath4788"
       clipPathUnits="userSpaceOnUse"><path
         id="path4790"
         d="m 125,98 104,0 0,102 -104,0 0,-102 z"
         inkscape:connector-curvature="0" /></clipPath><clipPath
       id="clipPath4818"
       clipPathUnits="userSpaceOnUse"><path
         id="path4820"
         d="m 180,157.598 95,0 0,-108 -95,0 0,108 z"
         inkscape:connector-curvature="0" /></clipPath><clipPath
       id="clipPath4824"
       clipPathUnits="userSpaceOnUse"><path
         id="path4826"
         d="m 226.578,157.009 c -25.508,-0.543 -46.062,-22.922 -46.035,-50.086 0.016,-15.7 6.848,-29.668 17.488,-38.829 l 0,-14.648 c 0,-1.93 1.469,-3.492 3.278,-3.492 l 6.558,0 c 1.813,0 3.278,1.562 3.278,3.492 l 0,6.883 c 0,1.879 1.359,3.496 3.121,3.586 1.882,0.094 3.437,-1.504 3.437,-3.488 l 0,-6.981 c 0,-1.93 1.469,-3.492 3.281,-3.492 1.809,0 3.278,1.562 3.278,3.492 l 0,6.883 c 0,1.879 1.355,3.496 3.121,3.586 1.883,0.094 3.437,-1.504 3.437,-3.488 l 0,-6.981 c 0,-1.93 1.469,-3.492 3.278,-3.492 1.812,0 3.281,1.562 3.281,3.492 l 0,6.883 c 0,1.879 1.355,3.496 3.117,3.586 1.887,0.094 3.438,-1.504 3.438,-3.488 l 0,-6.981 c 0,-1.93 1.468,-3.492 3.281,-3.492 l 6.558,0 c 1.809,0 3.278,1.562 3.278,3.492 l 0,14.648 c 10.652,9.172 17.488,23.161 17.488,38.883 0,27.981 -21.566,50.594 -47.961,50.032 z M 206.773,89.52 c -7.242,0 -13.113,6.254 -13.113,13.965 0,7.715 5.871,13.969 13.113,13.969 7.247,0 13.118,-6.254 13.118,-13.969 0,-7.711 -5.871,-13.965 -13.118,-13.965 z m 29.645,-12.941 c -0.641,-0.68 -1.48,-1.024 -2.32,-1.024 -0.84,0 -1.676,0.344 -2.317,1.024 l -4.242,4.515 -4.238,-4.515 c -1.281,-1.363 -3.356,-1.363 -4.637,0 -1.281,1.363 -1.281,3.574 0,4.937 l 6.559,6.985 c 1.281,1.363 3.355,1.363 4.636,0 l 6.559,-6.985 c 1.281,-1.363 1.281,-3.574 0,-4.937 z m 11.887,12.941 c -7.243,0 -13.114,6.254 -13.114,13.965 0,7.715 5.871,13.969 13.114,13.969 7.246,0 13.117,-6.254 13.117,-13.969 0,-7.711 -5.871,-13.965 -13.117,-13.965 z"
         inkscape:connector-curvature="0" /></clipPath><clipPath
       id="clipPath4834"
       clipPathUnits="userSpaceOnUse"><path
         id="path4836"
         d="M 0,0 410,0 410,410 0,410 0,0 Z"
         inkscape:connector-curvature="0" /></clipPath><clipPath
       id="clipPath4846"
       clipPathUnits="userSpaceOnUse"><path
         id="path4848"
         d="m 177,91 95,0 0,67 -95,0 0,-67 z"
         inkscape:connector-curvature="0" /></clipPath><mask
       id="mask4850"
       height="1"
       width="1"
       y="0"
       x="0"
       maskUnits="userSpaceOnUse"><g
         id="g4852"><g
           id="g4854"
           clip-path="url(#clipPath4846)"><path
             id="path4856"
             style="fill:#000000;fill-opacity:0.07999998;fill-rule:nonzero;stroke:none"
             d="m 177,91 95,0 0,67 -95,0 0,-67 z"
             inkscape:connector-curvature="0" /></g></g></mask><clipPath
       id="clipPath4862"
       clipPathUnits="userSpaceOnUse"><path
         id="path4864"
         d="m 177,91 95,0 0,67 -95,0 0,-67 z"
         inkscape:connector-curvature="0" /></clipPath><clipPath
       id="clipPath4866"
       clipPathUnits="userSpaceOnUse"><path
         id="path4868"
         d="m 177,91 95,0 0,67 -95,0 0,-67 z"
         inkscape:connector-curvature="0" /></clipPath><clipPath
       id="clipPath4896"
       clipPathUnits="userSpaceOnUse"><path
         id="path4898"
         d="m 188,310.598 104,0 0,-107 -104,0 0,107 z"
         inkscape:connector-curvature="0" /></clipPath><clipPath
       id="clipPath4902"
       clipPathUnits="userSpaceOnUse"><path
         id="path4904"
         d="m 238.898,309.989 c -27.722,-0.539 -50.062,-22.707 -50.031,-49.621 0.016,-15.555 7.442,-29.395 19.004,-38.469 l 0,-14.512 c 0,-1.91 1.598,-3.46 3.567,-3.46 l 7.124,0 c 1.969,0 3.567,1.55 3.567,3.46 l 0,6.817 c 0,1.863 1.473,3.469 3.391,3.555 2.046,0.093 3.734,-1.489 3.734,-3.454 l 0,-6.918 c 0,-1.91 1.598,-3.46 3.562,-3.46 1.969,0 3.567,1.55 3.567,3.46 l 0,6.817 c 0,1.863 1.472,3.469 3.39,3.555 2.047,0.093 3.735,-1.489 3.735,-3.454 l 0,-6.918 c 0,-1.91 1.597,-3.46 3.566,-3.46 1.969,0 3.563,1.55 3.563,3.46 l 0,6.817 c 0,1.863 1.476,3.469 3.39,3.555 2.047,0.093 3.739,-1.489 3.739,-3.454 l 0,-6.918 c 0,-1.91 1.593,-3.46 3.562,-3.46 l 7.125,0 c 1.969,0 3.567,1.55 3.567,3.46 l 0,14.512 c 11.578,9.086 19.003,22.949 19.003,38.524 0,27.718 -23.437,50.125 -52.125,49.566 z M 217.375,243.13 c -7.871,0 -14.254,6.191 -14.254,13.836 0,7.64 6.383,13.832 14.254,13.832 7.875,0 14.254,-6.192 14.254,-13.832 0,-7.645 -6.379,-13.836 -14.254,-13.836 z m 32.219,-12.825 c -0.699,-0.675 -1.61,-1.011 -2.52,-1.011 -0.914,0 -1.824,0.336 -2.523,1.011 l -4.606,4.473 -4.609,-4.473 c -1.391,-1.351 -3.645,-1.351 -5.039,0 -1.391,1.352 -1.391,3.539 0,4.891 l 7.129,6.918 c 1.39,1.352 3.648,1.352 5.039,0 l 7.129,-6.918 c 1.39,-1.352 1.39,-3.539 0,-4.891 z m 12.922,12.825 c -7.875,0 -14.254,6.191 -14.254,13.836 0,7.64 6.379,13.832 14.254,13.832 7.871,0 14.254,-6.192 14.254,-13.832 0,-7.645 -6.383,-13.836 -14.254,-13.836 z"
         inkscape:connector-curvature="0" /></clipPath><clipPath
       id="clipPath4912"
       clipPathUnits="userSpaceOnUse"><path
         id="path4914"
         d="m 187,193 106,0 0,118 -106,0 0,-118 z"
         inkscape:connector-curvature="0" /></clipPath><clipPath
       id="clipPath4932"
       clipPathUnits="userSpaceOnUse"><path
         id="path4934"
         d="m 63,243.598 101,0 0,-107 -101,0 0,107 z"
         inkscape:connector-curvature="0" /></clipPath><clipPath
       id="clipPath4938"
       clipPathUnits="userSpaceOnUse"><path
         id="path4940"
         d="m 112.668,243.411 c -27.141,-0.539 -49.012,-22.774 -48.98,-49.766 0.019,-15.597 7.285,-29.476 18.605,-38.578 l 0,-14.555 c 0,-1.918 1.562,-3.468 3.488,-3.468 l 6.981,0 c 1.926,0 3.488,1.55 3.488,3.468 l 0,6.84 c 0,1.867 1.441,3.473 3.32,3.563 2.004,0.094 3.657,-1.496 3.657,-3.465 l 0,-6.938 c 0,-1.918 1.562,-3.468 3.488,-3.468 1.926,0 3.488,1.55 3.488,3.468 l 0,6.84 c 0,1.867 1.445,3.473 3.32,3.563 2.004,0.094 3.657,-1.496 3.657,-3.465 l 0,-6.938 c 0,-1.918 1.562,-3.468 3.492,-3.468 1.926,0 3.488,1.55 3.488,3.468 l 0,6.84 c 0,1.867 1.442,3.473 3.32,3.563 2.004,0.094 3.657,-1.496 3.657,-3.465 l 0,-6.938 c 0,-1.918 1.562,-3.468 3.488,-3.468 l 6.977,0 c 1.925,0 3.488,1.55 3.488,3.468 l 0,14.555 c 11.336,9.11 18.609,23.012 18.609,38.633 -0.004,27.801 -22.945,50.269 -51.031,49.711 z m -21.07,-67.055 c -7.707,0 -13.957,6.211 -13.957,13.875 0,7.664 6.25,13.875 13.957,13.875 7.707,0 13.953,-6.211 13.953,-13.875 0,-7.664 -6.246,-13.875 -13.953,-13.875 z m 31.539,-12.859 c -0.684,-0.676 -1.575,-1.016 -2.469,-1.016 -0.891,0 -1.785,0.34 -2.465,1.016 l -4.512,4.484 -4.511,-4.484 c -1.36,-1.356 -3.571,-1.356 -4.93,0 -1.363,1.355 -1.363,3.551 0,4.906 l 6.977,6.938 c 1.363,1.355 3.57,1.355 4.933,0 l 6.977,-6.938 c 1.363,-1.355 1.363,-3.551 0,-4.906 z m 12.652,12.859 c -7.707,0 -13.957,6.211 -13.957,13.875 0,7.664 6.25,13.875 13.957,13.875 7.707,0 13.953,-6.211 13.953,-13.875 0,-7.664 -6.246,-13.875 -13.953,-13.875 z"
         inkscape:connector-curvature="0" /></clipPath><clipPath
       id="clipPath4948"
       clipPathUnits="userSpaceOnUse"><path
         id="path4950"
         d="m 60,125 107,0 0,119 -107,0 0,-119 z"
         inkscape:connector-curvature="0" /></clipPath><clipPath
       id="clipPath4968"
       clipPathUnits="userSpaceOnUse"><path
         id="path4970"
         d="m 117,285.598 99,0 0,-108 -99,0 0,108 z"
         inkscape:connector-curvature="0" /></clipPath><clipPath
       id="clipPath4974"
       clipPathUnits="userSpaceOnUse"><path
         id="path4976"
         d="m 165.496,284.79 c -26.641,-0.547 -48.105,-22.946 -48.078,-50.137 0.016,-15.711 7.152,-29.695 18.266,-38.859 l 0,-14.664 c 0,-1.93 1.531,-3.496 3.421,-3.496 l 6.852,0 c 1.891,0 3.422,1.566 3.422,3.496 l 0,6.89 c 0,1.879 1.418,3.5 3.262,3.59 1.964,0.094 3.589,-1.508 3.589,-3.492 l 0,-6.988 c 0,-1.93 1.532,-3.496 3.422,-3.496 1.891,0 3.426,1.566 3.426,3.496 l 0,6.89 c 0,1.879 1.418,3.5 3.258,3.59 1.969,0.094 3.59,-1.508 3.59,-3.492 l 0,-6.988 c 0,-1.93 1.535,-3.496 3.426,-3.496 1.89,0 3.425,1.566 3.425,3.496 l 0,6.89 c 0,1.879 1.418,3.5 3.258,3.59 1.965,0.094 3.59,-1.508 3.59,-3.492 l 0,-6.988 c 0,-1.93 1.535,-3.496 3.426,-3.496 l 6.847,0 c 1.891,0 3.426,1.566 3.426,3.496 l 0,14.664 c 11.125,9.175 18.262,23.179 18.262,38.918 0,28.004 -22.52,50.64 -50.09,50.078 z m -20.684,-67.551 c -7.562,0 -13.695,6.258 -13.695,13.977 0,7.722 6.133,13.98 13.695,13.98 7.567,0 13.7,-6.258 13.7,-13.98 0,-7.719 -6.133,-13.977 -13.7,-13.977 z m 30.961,-12.953 c -0.671,-0.684 -1.546,-1.024 -2.421,-1.024 -0.875,0 -1.754,0.34 -2.422,1.024 l -4.426,4.516 -4.43,-4.516 c -1.336,-1.367 -3.504,-1.367 -4.844,0 -1.335,1.363 -1.335,3.574 0,4.941 l 6.852,6.989 c 1.336,1.363 3.504,1.363 4.84,0 l 6.851,-6.989 c 1.336,-1.367 1.336,-3.578 0,-4.941 z m 12.418,12.953 c -7.566,0 -13.699,6.258 -13.699,13.977 0,7.722 6.133,13.98 13.699,13.98 7.563,0 13.696,-6.258 13.696,-13.98 0,-7.719 -6.133,-13.977 -13.696,-13.977 z"
         inkscape:connector-curvature="0" /></clipPath><clipPath
       id="clipPath4984"
       clipPathUnits="userSpaceOnUse"><path
         id="path4986"
         d="M 0,0 410,0 410,410 0,410 0,0 Z"
         inkscape:connector-curvature="0" /></clipPath><clipPath
       id="clipPath4996"
       clipPathUnits="userSpaceOnUse"><path
         id="path4998"
         d="m 164,233 52,0 0,51 -52,0 0,-51 z"
         inkscape:connector-curvature="0" /></clipPath><mask
       id="mask5000"
       height="1"
       width="1"
       y="0"
       x="0"
       maskUnits="userSpaceOnUse"><g
         id="g5002"><g
           id="g5004"
           clip-path="url(#clipPath4996)"><path
             id="path5006"
             style="fill:#000000;fill-opacity:0.1;fill-rule:nonzero;stroke:none"
             d="m 164,233 52,0 0,51 -52,0 0,-51 z"
             inkscape:connector-curvature="0" /></g></g></mask><clipPath
       id="clipPath5012"
       clipPathUnits="userSpaceOnUse"><path
         id="path5014"
         d="m 164,233 52,0 0,51 -52,0 0,-51 z"
         inkscape:connector-curvature="0" /></clipPath><clipPath
       id="clipPath5016"
       clipPathUnits="userSpaceOnUse"><path
         id="path5018"
         d="m 164,233 52,0 0,51 -52,0 0,-51 z"
         inkscape:connector-curvature="0" /></clipPath><clipPath
       id="clipPath5046"
       clipPathUnits="userSpaceOnUse"><path
         id="path5048"
         d="m 246,266.598 99,0 0,-109 -99,0 0,109 z"
         inkscape:connector-curvature="0" /></clipPath><clipPath
       id="clipPath5052"
       clipPathUnits="userSpaceOnUse"><path
         id="path5054"
         d="m 294.816,266.372 c -26.558,-0.551 -47.957,-23.106 -47.925,-50.488 0.015,-15.825 7.129,-29.907 18.207,-39.137 l 0,-14.77 c 0,-1.941 1.527,-3.519 3.414,-3.519 l 6.824,0 c 1.887,0 3.414,1.578 3.414,3.519 l 0,6.942 c 0,1.894 1.414,3.523 3.25,3.613 1.961,0.094 3.578,-1.516 3.578,-3.516 l 0,-7.039 c 0,-1.941 1.531,-3.519 3.414,-3.519 1.887,0 3.414,1.578 3.414,3.519 l 0,6.942 c 0,1.894 1.414,3.523 3.25,3.613 1.961,0.094 3.578,-1.516 3.578,-3.516 l 0,-7.039 c 0,-1.941 1.528,-3.519 3.414,-3.519 1.887,0 3.414,1.578 3.414,3.519 l 0,6.942 c 0,1.894 1.415,3.523 3.25,3.613 1.961,0.094 3.579,-1.516 3.579,-3.516 l 0,-7.039 c 0,-1.941 1.527,-3.519 3.414,-3.519 l 6.828,0 c 1.883,0 3.414,1.578 3.414,3.519 l 0,14.77 c 11.09,9.242 18.203,23.344 18.203,39.191 0,28.203 -22.449,51 -49.934,50.434 z m -20.617,-68.028 c -7.539,0 -13.656,6.301 -13.656,14.075 0,7.777 6.117,14.078 13.656,14.078 7.543,0 13.656,-6.301 13.656,-14.078 0,-7.774 -6.113,-14.075 -13.656,-14.075 z m 30.863,-13.046 c -0.667,-0.688 -1.542,-1.032 -2.414,-1.032 -0.875,0 -1.746,0.344 -2.414,1.032 l -4.414,4.55 -4.414,-4.55 c -1.332,-1.375 -3.492,-1.375 -4.828,0 -1.332,1.375 -1.332,3.601 0,4.976 l 6.828,7.039 c 1.332,1.375 3.496,1.375 4.828,0 l 6.828,-7.039 c 1.333,-1.375 1.333,-3.601 0,-4.976 z m 12.379,13.046 c -7.543,0 -13.656,6.301 -13.656,14.075 0,7.777 6.113,14.078 13.656,14.078 7.539,0 13.657,-6.301 13.657,-14.078 0,-7.774 -6.118,-14.075 -13.657,-14.075 z"
         inkscape:connector-curvature="0" /></clipPath><clipPath
       id="clipPath5062"
       clipPathUnits="userSpaceOnUse"><path
         id="path5064"
         d="M 0,0 410,0 410,410 0,410 0,0 Z"
         inkscape:connector-curvature="0" /></clipPath><clipPath
       id="clipPath5074"
       clipPathUnits="userSpaceOnUse"><path
         id="path5076"
         d="m 299,214 49,0 0,51 -49,0 0,-51 z"
         inkscape:connector-curvature="0" /></clipPath><mask
       id="mask5078"
       height="1"
       width="1"
       y="0"
       x="0"
       maskUnits="userSpaceOnUse"><g
         id="g5080"><g
           id="g5082"
           clip-path="url(#clipPath5074)"><path
             id="path5084"
             style="fill:#000000;fill-opacity:0.1;fill-rule:nonzero;stroke:none"
             d="m 299,214 49,0 0,51 -49,0 0,-51 z"
             inkscape:connector-curvature="0" /></g></g></mask><clipPath
       id="clipPath5090"
       clipPathUnits="userSpaceOnUse"><path
         id="path5092"
         d="m 299,214 49,0 0,51 -49,0 0,-51 z"
         inkscape:connector-curvature="0" /></clipPath><clipPath
       id="clipPath5094"
       clipPathUnits="userSpaceOnUse"><path
         id="path5096"
         d="m 299,214 49,0 0,51 -49,0 0,-51 z"
         inkscape:connector-curvature="0" /></clipPath><clipPath
       id="clipPath5124"
       clipPathUnits="userSpaceOnUse"><path
         id="path5126"
         d="m 188,231.598 99,0 0,-111 -99,0 0,111 z"
         inkscape:connector-curvature="0" /></clipPath><clipPath
       id="clipPath5130"
       clipPathUnits="userSpaceOnUse"><path
         id="path5132"
         d="M 236.328,231.411 C 209.562,230.848 188,207.727 188.027,179.665 c 0.02,-16.219 7.184,-30.649 18.348,-40.11 l 0,-15.136 c 0,-1.992 1.543,-3.606 3.441,-3.606 l 6.879,0 c 1.903,0 3.442,1.614 3.442,3.606 l 0,7.113 c 0,1.941 1.425,3.613 3.273,3.703 1.977,0.098 3.61,-1.555 3.61,-3.601 l 0,-7.215 c 0,-1.992 1.539,-3.606 3.437,-3.606 1.902,0 3.441,1.614 3.441,3.606 l 0,7.113 c 0,1.941 1.426,3.613 3.274,3.703 1.976,0.098 3.609,-1.555 3.609,-3.601 l 0,-7.215 c 0,-1.992 1.539,-3.606 3.438,-3.606 1.902,0 3.441,1.614 3.441,3.606 l 0,7.113 c 0,1.941 1.422,3.613 3.274,3.703 1.976,0.098 3.605,-1.555 3.605,-3.601 l 0,-7.215 c 0,-1.992 1.543,-3.606 3.441,-3.606 l 6.883,0 c 1.899,0 3.438,1.614 3.438,3.606 l 0,15.136 c 11.179,9.473 18.347,23.926 18.347,40.168 0,28.903 -22.625,52.266 -50.32,51.688 z m -20.777,-69.723 c -7.602,0 -13.762,6.461 -13.762,14.43 0,7.965 6.16,14.426 13.762,14.426 7.601,0 13.761,-6.461 13.761,-14.426 0,-7.969 -6.16,-14.43 -13.761,-14.43 z m 31.101,-13.371 c -0.672,-0.703 -1.554,-1.055 -2.433,-1.055 -0.879,0 -1.762,0.352 -2.434,1.055 l -4.445,4.664 -4.449,-4.664 c -1.344,-1.406 -3.52,-1.406 -4.864,0 -1.343,1.41 -1.343,3.692 0,5.102 l 6.879,7.215 c 1.344,1.406 3.52,1.406 4.864,0 l 6.882,-7.215 c 1.344,-1.41 1.344,-3.692 0,-5.102 z m 12.477,13.371 c -7.602,0 -13.762,6.461 -13.762,14.43 0,7.965 6.16,14.426 13.762,14.426 7.598,0 13.758,-6.461 13.758,-14.426 0,-7.969 -6.16,-14.43 -13.758,-14.43 z"
         inkscape:connector-curvature="0" /></clipPath><clipPath
       id="clipPath5140"
       clipPathUnits="userSpaceOnUse"><path
         id="path5142"
         d="M 0,0 410,0 410,410 0,410 0,0 Z"
         inkscape:connector-curvature="0" /></clipPath><clipPath
       id="clipPath5152"
       clipPathUnits="userSpaceOnUse"><path
         id="path5154"
         d="m 230,178 57,0 0,54 -57,0 0,-54 z"
         inkscape:connector-curvature="0" /></clipPath><mask
       id="mask5156"
       height="1"
       width="1"
       y="0"
       x="0"
       maskUnits="userSpaceOnUse"><g
         id="g5158"><g
           id="g5160"
           clip-path="url(#clipPath5152)"><path
             id="path5162"
             style="fill:#000000;fill-opacity:0.1;fill-rule:nonzero;stroke:none"
             d="m 230,178 57,0 0,54 -57,0 0,-54 z"
             inkscape:connector-curvature="0" /></g></g></mask><clipPath
       id="clipPath5168"
       clipPathUnits="userSpaceOnUse"><path
         id="path5170"
         d="m 230,178 57,0 0,54 -57,0 0,-54 z"
         inkscape:connector-curvature="0" /></clipPath><clipPath
       id="clipPath5172"
       clipPathUnits="userSpaceOnUse"><path
         id="path5174"
         d="m 230,178 57,0 0,54 -57,0 0,-54 z"
         inkscape:connector-curvature="0" /></clipPath></defs><g
     transform="matrix(0.2445915,0,0,-0.2445915,0.5517264,100.47916)"
     id="g4644"><g
       id="g4646"><path
         id="path4648"
         style="fill:#ff0000;fill-opacity:1;fill-rule:nonzero;stroke:none"
         d="m 285.812,293.692 c 0,0 -0.863,5.688 -3.824,11.856 9.52,-1.407 18.715,1.757 18.715,1.757 0,0 -1.039,6.86 -4.762,13.684 4.985,6.801 7.618,12.188 7.618,12.188 0,0 -4.832,3.558 -12.403,7.289 0.16,7.8 -2.101,14.398 -2.101,14.398 0,0 -9.903,-1.496 -17.754,-7.355 -4.215,0.89 -8.625,1.418 -13.11,1.347 1.184,3.828 1.891,7.738 2.258,11.594 8.567,5.664 13.328,15.402 13.328,15.402 0,0 -6.254,4.614 -14.371,6.676 -1.465,8.484 -3.586,14.266 -3.586,14.266 0,0 -6.066,-1.055 -14.152,-4.028 -5.844,6 -12.961,9.11 -12.961,9.11 0,0 -6.055,-8.996 -6.676,-19.246 -3.156,-2.246 -6.187,-4.813 -8.914,-7.754 -2.179,3.922 -4.84,7.476 -7.719,10.679 1.149,9.731 -2.507,19.055 -2.507,19.055 0,0 -6.844,-1.34 -13.52,-5.379 -7.016,4.692 -12.516,7.094 -12.516,7.094 0,0 -3.343,-4.973 -6.742,-12.688 -7.773,-0.187 -14.23,-2.722 -14.23,-2.722 0,0 1.859,-9.543 7.836,-17.082 -6.824,-0.52 -12.18,-2.617 -12.18,-2.617 0,0 3.043,-15.59 13.84,-22.661 8.578,-25.855 43.309,-33.398 43.309,-33.398 0,0 23.898,-26.305 50.582,-20.809 11.519,-5.812 26.542,-0.656 26.542,-0.656 z"
         inkscape:connector-curvature="0" /><path
         id="path4650"
         style="fill:#800000;fill-opacity:1;fill-rule:nonzero;stroke:none"
         d="m 248.691,290.341 c 0,0 -3.586,4.492 -9.238,8.355 8.945,3.543 15.328,10.875 15.328,10.875 0,0 -4.324,5.422 -10.965,9.473 0.918,8.383 0.504,14.359 0.504,14.359 0,0 -5.965,0.672 -14.382,0.117 -3.762,6.836 -9.024,11.418 -9.024,11.418 0,0 -7.828,-6.25 -11.695,-15.25 -4.094,-1.336 -8.176,-3.086 -12.024,-5.386 -0.89,3.906 -2.234,7.644 -3.843,11.167 4.586,9.188 3.839,20.004 3.839,20.004 0,0 -7.718,0.868 -15.781,-1.406 -5.512,6.617 -10.238,10.563 -10.238,10.563 0,0 -4.731,-3.946 -10.242,-10.563 -8.059,2.274 -15.782,1.406 -15.782,1.406 0,0 -0.746,-10.816 3.84,-20.004 -1.605,-3.519 -2.949,-7.261 -3.84,-11.171 -3.847,2.304 -7.933,4.054 -12.027,5.39 -3.867,9 -11.695,15.246 -11.695,15.246 0,0 -5.258,-4.578 -9.02,-11.418 -8.422,0.555 -14.386,-0.113 -14.386,-0.113 0,0 -0.411,-5.98 0.503,-14.359 -6.636,-4.051 -10.964,-9.473 -10.964,-9.473 0,0 6.382,-7.336 15.332,-10.875 -5.653,-3.863 -9.243,-8.359 -9.243,-8.359 0,0 10.434,-11.977 23.317,-12.703 20.359,-18.102 54.207,-7.27 54.207,-7.27 0,0 33.848,-10.832 54.207,7.27 12.883,0.726 23.312,12.707 23.312,12.707 z"
         inkscape:connector-curvature="0" /><path
         id="path4652"
         style="fill:#800000;fill-opacity:1;fill-rule:nonzero;stroke:none"
         d="m 165.59,62.641 c 0,-9.226 -7.625,-16.703 -17.031,-16.703 -9.407,0 -17.032,7.477 -17.032,16.703 0,9.227 7.625,16.707 17.032,16.707 9.406,0 17.031,-7.48 17.031,-16.707 z"
         inkscape:connector-curvature="0" /><path
         id="path4654"
         style="fill:#800000;fill-opacity:1;fill-rule:nonzero;stroke:none"
         d="m 211.988,62.571 c 0,-10.965 -8.254,-19.852 -18.441,-19.852 -10.184,0 -18.442,8.887 -18.442,19.852 0,10.965 8.258,19.852 18.442,19.852 10.187,0 18.441,-8.887 18.441,-19.852 z"
         inkscape:connector-curvature="0" /><path
         id="path4656"
         style="fill:#000000;fill-opacity:1;fill-rule:nonzero;stroke:none"
         d="m 158.039,48.579 23.625,0 0,-17.488 -23.625,0 0,17.488 z"
         inkscape:connector-curvature="0" /></g><g
       id="g4658"><g
         clip-path="url(#clipPath4662)"
         id="g4660"><g
           clip-path="url(#clipPath4668)"
           id="g4666"><g
             transform="translate(0,-0.401611)"
             id="g4672"><g
               id="g4674"><g
                 clip-path="url(#clipPath4678)"
                 id="g4676"><g
                   id="g4682"><path
                     id="path4684"
                     style="fill:#8460c8;fill-opacity:1;fill-rule:nonzero;stroke:none"
                     d="m 223.84,55.953 c 0,-32.488 -23.582,-58.824 -52.672,-58.824 -29.09,0 -52.672,26.336 -52.672,58.824 0,32.485 23.582,58.82 52.672,58.82 29.09,0 52.672,-26.335 52.672,-58.82 z"
                     inkscape:connector-curvature="0" /><g
                     id="g4686"><g
                       id="g4688" /><g
                       mask="url(#mask4694)"
                       id="g4702"><g
                         id="g4704" /><g
                         id="g4714"><g
                           id="g4716"
                           clip-path="url(#clipPath4706)"><g
                             id="g4718"><g
                               id="g4720"><g
                                 id="g4722"
                                 clip-path="url(#clipPath4710)"><g
                                   id="g4724"><path
                                   id="path4726"
                                   style="fill:#000000;fill-opacity:1;fill-rule:nonzero;stroke:none"
                                   d="m 171.172,114.773 c -20.895,0 -38.945,-13.585 -47.457,-33.281 9.613,-11.512 23.308,-18.719 38.512,-18.719 0.117,0 0.234,0.012 0.351,0.012 6.453,-24.34 26.61,-42.097 50.496,-42.097 0.086,0 0.172,0.007 0.258,0.007 6.598,9.825 10.508,22.028 10.508,35.254 0,32.489 -23.582,58.824 -52.668,58.824 z"
                                   inkscape:connector-curvature="0" /></g></g></g></g></g></g></g></g></g></g></g></g></g></g></g><g
       id="g4728"><path
         id="path4730"
         style="fill:#000000;fill-opacity:1;fill-rule:nonzero;stroke:none"
         d="m 165.094,133.259 20.863,0 0,-15.953 -20.863,0 0,15.953 z"
         inkscape:connector-curvature="0" /><path
         id="path4732"
         style="fill:#800000;fill-opacity:1;fill-rule:nonzero;stroke:none"
         d="m 171.852,147.723 c 0,-10.543 -7.379,-19.089 -16.489,-19.089 -9.105,0 -16.484,8.546 -16.484,19.089 0,10.543 7.379,19.09 16.484,19.09 9.11,0 16.489,-8.547 16.489,-19.09 z"
         inkscape:connector-curvature="0" /><path
         id="path4734"
         style="fill:#800000;fill-opacity:1;fill-rule:nonzero;stroke:none"
         d="m 218.715,147.723 c 0,-10.543 -9.324,-19.089 -20.828,-19.089 -11.504,0 -20.828,8.546 -20.828,19.089 0,10.543 9.324,19.09 20.828,19.09 11.504,0 20.828,-8.547 20.828,-19.09 z"
         inkscape:connector-curvature="0" /></g><g
       id="g4736"><g
         clip-path="url(#clipPath4740)"
         id="g4738"><g
           clip-path="url(#clipPath4746)"
           id="g4744"><g
             transform="translate(0,-0.401611)"
             id="g4750"><g
               id="g4752"><g
                 clip-path="url(#clipPath4756)"
                 id="g4754"><g
                   id="g4760"><path
                     id="path4762"
                     style="fill:#8460c8;fill-opacity:1;fill-rule:nonzero;stroke:none"
                     d="m 228.461,140.543 c 0,-32.488 -23.582,-58.824 -52.672,-58.824 -29.09,0 -52.672,26.336 -52.672,58.824 0,32.484 23.582,58.82 52.672,58.82 29.09,0 52.672,-26.336 52.672,-58.82 z"
                     inkscape:connector-curvature="0" /><g
                     id="g4764"><g
                       id="g4766" /><g
                       mask="url(#mask4772)"
                       id="g4780"><g
                         id="g4782" /><g
                         id="g4792"><g
                           id="g4794"
                           clip-path="url(#clipPath4784)"><g
                             id="g4796"><g
                               id="g4798"><g
                                 id="g4800"
                                 clip-path="url(#clipPath4788)"><g
                                   id="g4802"><path
                                   id="path4804"
                                   style="fill:#000000;fill-opacity:1;fill-rule:nonzero;stroke:none"
                                   d="m 175.789,199.359 c -23.121,0 -42.754,-16.652 -49.836,-39.797 8.238,-5.964 18.055,-9.441 28.606,-9.441 6.289,0 12.316,1.234 17.906,3.492 0.797,-26.789 17.617,-49.035 40.105,-55.164 9.797,10.684 15.891,25.586 15.891,42.086 0,32.492 -23.582,58.824 -52.672,58.824 z"
                                   inkscape:connector-curvature="0" /></g></g></g></g></g></g></g></g></g></g></g></g></g></g></g><g
       id="g4806"><path
         id="path4808"
         style="fill:#800000;fill-opacity:1;fill-rule:nonzero;stroke:none"
         d="m 223.391,102.579 c 0,-10 -6.594,-18.106 -14.731,-18.106 -8.133,0 -14.726,8.106 -14.726,18.106 0,9.996 6.593,18.101 14.726,18.101 8.137,0 14.731,-8.105 14.731,-18.101 z"
         inkscape:connector-curvature="0" /><path
         id="path4810"
         style="fill:#800000;fill-opacity:1;fill-rule:nonzero;stroke:none"
         d="m 266.957,104.419 c 0,-11.016 -8.105,-19.946 -18.102,-19.946 -10,0 -18.101,8.93 -18.101,19.946 0,11.011 8.101,19.941 18.101,19.941 9.997,0 18.102,-8.93 18.102,-19.941 z"
         inkscape:connector-curvature="0" /><path
         id="path4812"
         style="fill:#000000;fill-opacity:1;fill-rule:nonzero;stroke:none"
         d="m 215.719,90.919 23.93,0 0,-18.41 -23.93,0 0,18.41 z"
         inkscape:connector-curvature="0" /></g><g
       id="g4814"><g
         clip-path="url(#clipPath4818)"
         id="g4816"><g
           clip-path="url(#clipPath4824)"
           id="g4822"><g
             transform="translate(0,-0.401611)"
             id="g4828"><g
               id="g4830"><g
                 clip-path="url(#clipPath4834)"
                 id="g4832"><g
                   id="g4838"><path
                     id="path4840"
                     style="fill:#9c7cd3;fill-opacity:1;fill-rule:nonzero;stroke:none"
                     d="m 280.176,98.445 c 0,-32.484 -23.582,-58.82 -52.672,-58.82 -29.09,0 -52.672,26.336 -52.672,58.82 0,32.489 23.582,58.825 52.672,58.825 29.09,0 52.672,-26.336 52.672,-58.825 z"
                     inkscape:connector-curvature="0" /><g
                     id="g4842"><g
                       id="g4844" /><g
                       mask="url(#mask4850)"
                       id="g4858"><g
                         id="g4860" /><g
                         id="g4870"><g
                           id="g4872"
                           clip-path="url(#clipPath4862)"><g
                             id="g4874"><g
                               id="g4876"><g
                                 id="g4878"
                                 clip-path="url(#clipPath4866)"><g
                                   id="g4880"><path
                                   id="path4882"
                                   style="fill:#000000;fill-opacity:1;fill-rule:nonzero;stroke:none"
                                   d="m 227.504,157.273 c -22.957,0 -42.477,-16.414 -49.684,-39.3 9.391,-16.137 25.664,-26.817 44.18,-26.817 22.957,0 42.477,16.41 49.684,39.301 -9.391,16.137 -25.664,26.816 -44.18,26.816 z"
                                   inkscape:connector-curvature="0" /></g></g></g></g></g></g></g></g></g></g></g></g></g></g></g><g
       id="g4884"><path
         id="path4886"
         style="fill:#000000;fill-opacity:1;fill-rule:nonzero;stroke:none"
         d="m 227.684,244.325 24.238,0 0,-18.715 -24.238,0 0,18.715 z"
         inkscape:connector-curvature="0" /><path
         id="path4888"
         style="fill:#800000;fill-opacity:1;fill-rule:nonzero;stroke:none"
         d="m 234.434,257.212 c 0,-10.34 -8.379,-18.719 -18.715,-18.719 -10.336,0 -18.715,8.379 -18.715,18.719 0,10.336 8.379,18.715 18.715,18.715 10.336,0 18.715,-8.379 18.715,-18.715 z"
         inkscape:connector-curvature="0" /><path
         id="path4890"
         style="fill:#800000;fill-opacity:1;fill-rule:nonzero;stroke:none"
         d="m 278.613,259.969 c 0,-10.843 -7.691,-19.632 -17.179,-19.632 -9.489,0 -17.184,8.789 -17.184,19.632 0,10.848 7.695,19.637 17.184,19.637 9.488,0 17.179,-8.789 17.179,-19.637 z"
         inkscape:connector-curvature="0" /></g><g
       id="g4892"><g
         clip-path="url(#clipPath4896)"
         id="g4894"><g
           clip-path="url(#clipPath4902)"
           id="g4900"><g
             transform="translate(0,-0.401611)"
             id="g4906"><g
               id="g4908"><g
                 clip-path="url(#clipPath4912)"
                 id="g4910"><g
                   id="g4916"><path
                     id="path4918"
                     style="fill:#9c7cd3;fill-opacity:1;fill-rule:nonzero;stroke:none"
                     d="m 292.988,252.141 c 0,-32.489 -23.582,-58.825 -52.672,-58.825 -29.089,0 -52.671,26.336 -52.671,58.825 0,32.488 23.582,58.82 52.671,58.82 29.09,0 52.672,-26.332 52.672,-58.82 z"
                     inkscape:connector-curvature="0" /></g></g></g></g></g></g></g><g
       id="g4920"><path
         id="path4922"
         style="fill:#800000;fill-opacity:1;fill-rule:nonzero;stroke:none"
         d="m 106.801,190.938 c 0,-9.32 -7.145,-16.875 -15.953,-16.875 -8.813,0 -15.957,7.555 -15.957,16.875 0,9.321 7.144,16.875 15.957,16.875 8.808,0 15.953,-7.554 15.953,-16.875 z"
         inkscape:connector-curvature="0" /><path
         id="path4924"
         style="fill:#800000;fill-opacity:1;fill-rule:nonzero;stroke:none"
         d="m 152.82,193.391 c 0,-10.672 -7.554,-19.328 -16.871,-19.328 -9.32,0 -16.875,8.656 -16.875,19.328 0,10.676 7.555,19.332 16.875,19.332 9.317,0 16.871,-8.656 16.871,-19.332 z"
         inkscape:connector-curvature="0" /><path
         id="path4926"
         style="fill:#000000;fill-opacity:1;fill-rule:nonzero;stroke:none"
         d="m 100.664,178.052 27,0 0,-18.102 -27,0 0,18.102 z"
         inkscape:connector-curvature="0" /></g><g
       id="g4928"><g
         clip-path="url(#clipPath4932)"
         id="g4930"><g
           clip-path="url(#clipPath4938)"
           id="g4936"><g
             transform="translate(0,-0.401611)"
             id="g4942"><g
               id="g4944"><g
                 clip-path="url(#clipPath4948)"
                 id="g4946"><g
                   id="g4952"><path
                     id="path4954"
                     style="fill:#9c7cd3;fill-opacity:1;fill-rule:nonzero;stroke:none"
                     d="m 166.109,184.715 c 0,-32.485 -23.582,-58.82 -52.671,-58.82 -29.09,0 -52.672,26.335 -52.672,58.82 0,32.488 23.582,58.824 52.672,58.824 29.089,0 52.671,-26.336 52.671,-58.824 z"
                     inkscape:connector-curvature="0" /></g></g></g></g></g></g></g><g
       id="g4956"><path
         id="path4958"
         style="fill:#000000;fill-opacity:1;fill-rule:nonzero;stroke:none"
         d="m 155.582,219.473 23.934,0 0,-19.945 -23.934,0 0,19.945 z"
         inkscape:connector-curvature="0" /><path
         id="path4960"
         style="fill:#800000;fill-opacity:1;fill-rule:nonzero;stroke:none"
         d="m 160.188,231.438 c 0,-8.98 -7.559,-16.261 -16.876,-16.261 -9.32,0 -16.874,7.281 -16.874,16.261 0,8.981 7.554,16.262 16.874,16.262 9.317,0 16.876,-7.281 16.876,-16.262 z"
         inkscape:connector-curvature="0" /><path
         id="path4962"
         style="fill:#800000;fill-opacity:1;fill-rule:nonzero;stroke:none"
         d="m 203.141,232.665 c 0,-8.981 -7.008,-16.262 -15.649,-16.262 -8.64,0 -15.648,7.281 -15.648,16.262 0,8.98 7.008,16.262 15.648,16.262 8.641,0 15.649,-7.282 15.649,-16.262 z"
         inkscape:connector-curvature="0" /></g><g
       id="g4964"><g
         clip-path="url(#clipPath4968)"
         id="g4966"><g
           clip-path="url(#clipPath4974)"
           id="g4972"><g
             transform="translate(0,-0.401611)"
             id="g4978"><g
               id="g4980"><g
                 clip-path="url(#clipPath4984)"
                 id="g4982"><g
                   id="g4988"><path
                     id="path4990"
                     style="fill:#8460c8;fill-opacity:1;fill-rule:nonzero;stroke:none"
                     d="m 218.773,226.27 c 0,-32.489 -23.582,-58.825 -52.671,-58.825 -29.09,0 -52.672,26.336 -52.672,58.825 0,32.484 23.582,58.82 52.672,58.82 29.089,0 52.671,-26.336 52.671,-58.82 z"
                     inkscape:connector-curvature="0" /><g
                     id="g4992"><g
                       id="g4994" /><g
                       mask="url(#mask5000)"
                       id="g5008"><g
                         id="g5010" /><g
                         id="g5020"><g
                           id="g5022"
                           clip-path="url(#clipPath5012)"><g
                             id="g5024"><g
                               id="g5026"><g
                                 id="g5028"
                                 clip-path="url(#clipPath5016)"><g
                                   id="g5030"><path
                                   id="path5032"
                                   style="fill:#ffffff;fill-opacity:1;fill-rule:nonzero;stroke:none"
                                   d="m 176.242,283.992 c -7.25,-5.019 -12,-13.39 -12,-22.875 0,-15.363 12.457,-27.82 27.817,-27.82 9.933,0 18.644,5.211 23.566,13.043 -6.227,19.164 -21.117,33.676 -39.383,37.652 z"
                                   inkscape:connector-curvature="0" /></g></g></g></g></g></g></g></g></g></g></g></g></g></g></g><g
       id="g5034"><path
         id="path5036"
         style="fill:#000000;fill-opacity:1;fill-rule:nonzero;stroke:none"
         d="m 281.684,199.837 26.078,0 0,-17.488 -26.078,0 0,17.488 z"
         inkscape:connector-curvature="0" /><path
         id="path5038"
         style="fill:#800000;fill-opacity:1;fill-rule:nonzero;stroke:none"
         d="m 293.957,214.563 c 0,-9.148 -7.832,-16.566 -17.488,-16.566 -9.66,0 -17.489,7.418 -17.489,16.566 0,9.149 7.829,16.567 17.489,16.567 9.656,0 17.488,-7.418 17.488,-16.567 z"
         inkscape:connector-curvature="0" /><path
         id="path5040"
         style="fill:#800000;fill-opacity:1;fill-rule:nonzero;stroke:none"
         d="m 335.066,214.255 c 0,-10.336 -7.691,-18.715 -17.179,-18.715 -9.489,0 -17.18,8.379 -17.18,18.715 0,10.339 7.691,18.718 17.18,18.718 9.488,0 17.179,-8.379 17.179,-18.718 z"
         inkscape:connector-curvature="0" /></g><g
       id="g5042"><g
         clip-path="url(#clipPath5046)"
         id="g5044"><g
           clip-path="url(#clipPath5052)"
           id="g5050"><g
             transform="translate(0,-0.401611)"
             id="g5056"><g
               id="g5058"><g
                 clip-path="url(#clipPath5062)"
                 id="g5060"><g
                   id="g5066"><path
                     id="path5068"
                     style="fill:#8460c8;fill-opacity:1;fill-rule:nonzero;stroke:none"
                     d="m 348.895,208.031 c 0,-32.488 -23.583,-58.824 -52.676,-58.824 -29.09,0 -52.672,26.336 -52.672,58.824 0,32.485 23.582,58.821 52.672,58.821 29.093,0 52.676,-26.336 52.676,-58.821 z"
                     inkscape:connector-curvature="0" /><g
                     id="g5070"><g
                       id="g5072" /><g
                       mask="url(#mask5078)"
                       id="g5086"><g
                         id="g5088" /><g
                         id="g5098"><g
                           id="g5100"
                           clip-path="url(#clipPath5090)"><g
                             id="g5102"><g
                               id="g5104"><g
                                 id="g5106"
                                 clip-path="url(#clipPath5094)"><g
                                   id="g5108"><path
                                   id="path5110"
                                   style="fill:#ffffff;fill-opacity:1;fill-rule:nonzero;stroke:none"
                                   d="M 311.012,264.484 C 303.758,259.512 299,251.168 299,241.711 c 0,-15.238 12.352,-27.59 27.59,-27.59 8.144,0 15.461,3.527 20.508,9.137 -4.743,19.812 -18.508,35.492 -36.086,41.226 z"
                                   inkscape:connector-curvature="0" /></g></g></g></g></g></g></g></g></g></g></g></g></g></g></g><g
       id="g5112"><path
         id="path5114"
         style="fill:#000000;fill-opacity:1;fill-rule:nonzero;stroke:none"
         d="m 226.148,164.86 23.934,0 0,-21.172 -23.934,0 0,21.172 z"
         inkscape:connector-curvature="0" /><path
         id="path5116"
         style="fill:#800000;fill-opacity:1;fill-rule:nonzero;stroke:none"
         d="m 274.934,175.903 c 0,-10.844 -7.555,-19.633 -16.875,-19.633 -9.321,0 -16.875,8.789 -16.875,19.633 0,10.848 7.554,19.637 16.875,19.637 9.32,0 16.875,-8.789 16.875,-19.637 z"
         inkscape:connector-curvature="0" /><path
         id="path5118"
         style="fill:#800000;fill-opacity:1;fill-rule:nonzero;stroke:none"
         d="m 233.207,175.903 c 0,-10.504 -7.969,-19.019 -17.797,-19.019 -9.828,0 -17.793,8.515 -17.793,19.019 0,10.508 7.965,19.024 17.793,19.024 9.828,0 17.797,-8.516 17.797,-19.024 z"
         inkscape:connector-curvature="0" /></g><g
       id="g5120"><g
         clip-path="url(#clipPath5124)"
         id="g5122"><g
           clip-path="url(#clipPath5130)"
           id="g5128"><g
             transform="translate(0,-0.401611)"
             id="g5134"><g
               id="g5136"><g
                 clip-path="url(#clipPath5140)"
                 id="g5138"><g
                   id="g5144"><path
                     id="path5146"
                     style="fill:#9c7cd3;fill-opacity:1;fill-rule:nonzero;stroke:none"
                     d="m 289.312,172.922 c 0,-32.484 -23.582,-58.82 -52.675,-58.82 -29.09,0 -52.672,26.336 -52.672,58.82 0,32.488 23.582,58.824 52.672,58.824 29.093,0 52.675,-26.336 52.675,-58.824 z"
                     inkscape:connector-curvature="0" /><g
                     id="g5148"><g
                       id="g5150" /><g
                       mask="url(#mask5156)"
                       id="g5164"><g
                         id="g5166" /><g
                         id="g5176"><g
                           id="g5178"
                           clip-path="url(#clipPath5168)"><g
                             id="g5180"><g
                               id="g5182"><g
                                 id="g5184"
                                 clip-path="url(#clipPath5172)"><g
                                   id="g5186"><path
                                   id="path5188"
                                   style="fill:#ffffff;fill-opacity:1;fill-rule:nonzero;stroke:none"
                                   d="m 241.246,231.504 c -6.308,-5.543 -10.297,-13.672 -10.297,-22.731 0,-16.714 13.551,-30.261 30.262,-30.261 10.535,0 19.809,5.383 25.227,13.547 -6.633,21.535 -24.133,37.406 -45.192,39.445 z"
                                   inkscape:connector-curvature="0" /></g></g></g></g></g></g></g></g></g></g></g></g></g></g></g></g></svg>